<svg width="142" height="136" viewBox="0 0 142 136" fill="none" xmlns="http://www.w3.org/2000/svg">
<path d="M125.368 65.7411C135.541 48.8217 120.297 26.2485 115.39 22.6596M115.39 22.6596C114.396 20.8648 110.64 20.3851 109.149 19.5605M115.39 22.6596C113.144 23.653 111.811 23.1829 109.12 23.2139M115.39 22.6596C115.451 19.6604 113.841 18.8958 111.061 16.6777" stroke="#2C4163" stroke-width="2" stroke-linecap="round"/>
<path d="M18.2531 71.0563C3.15334 53.7743 15.1367 29.2705 22.6842 27.0571M22.6842 27.0571C23.443 25.1505 27.1074 24.1982 28.4822 23.1911M22.6842 27.0571C25.0383 27.7574 26.3012 27.1219 28.974 26.8113M22.6842 27.0571C22.2429 24.0898 23.743 23.1272 26.2196 20.5742" stroke="#2C4163" stroke-width="2" stroke-linecap="round"/>
<path d="M0.068634 120.76C2.21919 134.818 55.5479 135.125 68.7768 135.125C82.0057 135.125 144.686 136.378 141.911 124.488C139.136 112.598 90.6871 104.752 68.7768 112.116C46.8665 119.479 -2.08192 106.702 0.068634 120.76Z" fill="#1C232F"/>
<path d="M59.3242 78.0469C55.4549 96.9634 55.518 106.625 59.3242 122.182" stroke="#2C4163" stroke-width="2" stroke-linecap="round"/>
<path d="M86.1895 77.0859C84.8997 95.5912 84.9207 105.042 86.1895 120.262" stroke="#2C4163" stroke-width="2" stroke-linecap="round"/>
<path d="M124 67.5958C121.19 87.2749 140.065 103.065 68.9381 101.484C-2.18843 99.9028 15.5 82.4502 15.5 67.5958C15.5 52.7414 41.3767 31.1875 68.9382 31.1875C96.4998 31.1875 126.81 47.9167 124 67.5958Z" fill="#DE4A50"/>
<path d="M73.5005 84.4507C71 79.951 64.5004 79.4509 61.5005 83.9509C62.5003 85.4508 70.5003 85.9508 73.5005 84.4507Z" fill="#2C4163"/>
<g clip-path="url(#clip0_9206_54002)">
<ellipse cx="52.8782" cy="57.6214" rx="8.22879" ry="12.6175" fill="white"/>
<ellipse cx="52.8784" cy="63.4444" rx="4.35642" ry="6.79403" fill="#2C4163"/>
<ellipse cx="80.9529" cy="57.6214" rx="8.22879" ry="12.6175" fill="white"/>
<ellipse cx="80.9531" cy="63.4444" rx="4.35642" ry="6.79403" fill="#2C4163"/>
</g>
<path d="M81.4219 122.246C83.5298 121.427 85.2863 121.412 87.5264 121.621C88.7224 121.733 89.9598 121.399 91.1086 121.506" stroke="#2C4163" stroke-width="3" stroke-linecap="round"/>
<path d="M52.9452 121.888C54.7746 122.506 56.7248 122.125 58.596 122.326C59.8149 122.457 61.2073 121.705 62.3884 122.104" stroke="#2C4163" stroke-width="3" stroke-linecap="round"/>
<path d="M49.4941 17.3395C50.1875 17.1537 50.9001 17.5653 51.086 18.2586C51.2719 18.9521 50.8605 19.6647 50.1669 19.8506C49.4734 20.0364 48.7608 19.625 48.575 18.9315C48.3894 18.238 48.8007 17.5253 49.4941 17.3395ZM45.924 3.15524C48.4056 2.49028 50.9569 3.96328 51.6219 6.44494C51.9411 7.63653 51.774 8.90616 51.1573 9.97452L50.2382 11.5665C49.6779 12.5369 49.5255 13.691 49.8155 14.7734C49.9546 15.2934 49.6463 15.8277 49.1264 15.967C48.6064 16.1064 48.0723 15.7977 47.9327 15.2779C47.5088 13.696 47.7305 12.0097 48.5494 10.5914L49.4685 8.99949C49.8266 8.37901 49.9235 7.64173 49.7381 6.94969C49.3519 5.50829 47.8701 4.65276 46.4287 5.03898L46.2136 5.09661C44.6533 5.51471 43.7274 7.11839 44.1455 8.67875L44.3138 9.30698C44.453 9.82702 44.1438 10.3615 43.6237 10.5009C43.1038 10.64 42.5695 10.3316 42.4301 9.81173L42.2617 9.1835C41.565 6.58288 43.1083 3.9097 45.7089 3.21287L45.924 3.15524Z" fill="#2C4163"/>
<path d="M70.8885 14.6502C71.6063 14.654 72.185 15.239 72.1815 15.9568C72.1777 16.6748 71.5928 17.2536 70.8749 17.2498C70.1569 17.2461 69.5781 16.6612 69.5819 15.9432C69.5858 15.2254 70.1706 14.6465 70.8885 14.6502ZM71.1874 0.026604C73.7566 0.0400124 75.8288 2.134 75.8154 4.70316C75.8089 5.93675 75.3128 7.11731 74.436 7.98507L73.1294 9.27808C72.3329 10.0663 71.8814 11.1393 71.8755 12.2599C71.8725 12.7981 71.4342 13.2322 70.8959 13.2294C70.3576 13.2266 69.9238 12.7879 69.9264 12.2497C69.9349 10.612 70.5937 9.04397 71.7577 7.89199L73.0643 6.59899C73.5735 6.09501 73.8614 5.4094 73.8653 4.69299C73.873 3.20076 72.6695 1.98456 71.1773 1.97677L70.9546 1.97561C69.3392 1.96718 68.0231 3.26975 68.0146 4.88511L68.0112 5.53549C68.0082 6.07383 67.5689 6.50781 67.0305 6.505C66.4923 6.50198 66.0584 6.06352 66.061 5.52532L66.0644 4.87493C66.0785 2.18263 68.2725 0.0113909 70.9648 0.025442L71.1874 0.026604Z" fill="#2C4163"/>
<path d="M91.3943 17.3484C92.0858 17.5414 92.4896 18.2584 92.2968 18.9498C92.1037 19.6413 91.3869 20.0453 90.6953 19.8523C90.0038 19.6592 89.5999 18.9423 89.7929 18.2508C89.9861 17.5595 90.7029 17.1554 91.3943 17.3484ZM95.5413 3.32186C98.0159 4.01269 99.4621 6.57924 98.7713 9.05383C98.4395 10.242 97.6495 11.2498 96.5748 11.8555L94.9734 12.7579C93.9972 13.308 93.2785 14.2239 92.9772 15.3032C92.8322 15.8215 92.2949 16.1246 91.7764 15.9798C91.2579 15.8351 90.9553 15.2975 91.0997 14.779C91.5401 13.2016 92.5892 11.863 94.016 11.059L95.6174 10.1566C96.2416 9.80479 96.7002 9.21947 96.8929 8.52944C97.2942 7.09215 96.4542 5.60148 95.0169 5.20024L94.8024 5.14037C93.2465 4.70601 91.6333 5.61513 91.1989 7.17102L91.024 7.79745C90.8791 8.31593 90.3409 8.61861 89.8223 8.47385C89.304 8.32893 89.0011 7.79151 89.1456 7.27307L89.3205 6.64663C90.0445 4.05346 92.7336 2.53806 95.3268 3.262L95.5413 3.32186Z" fill="#2C4163"/>
<defs>
<clipPath id="clip0_9206_54002">
<rect width="44.5323" height="25.235" fill="white" transform="translate(44.6494 45.0039)"/>
</clipPath>
</defs>
</svg>
