<svg width="158" height="150" viewBox="0 0 158 150" fill="none" xmlns="http://www.w3.org/2000/svg">
<path d="M149.632 128.551C147.573 112.152 96.5039 111.794 83.8356 111.794C71.1672 111.794 11.1434 110.333 13.8007 124.203C16.458 138.072 62.8537 147.224 83.8356 138.634C104.817 130.045 151.692 144.949 149.632 128.551Z" fill="#ECEDEF"/>
<path d="M42.8163 44.9917C23.0875 57.4992 11.609 65.4879 13.4429 90.8968M13.4429 90.8968C13.6181 93.3242 13.9148 95.9107 14.3374 98.6752M13.4429 90.8968L20.8014 95.9004M13.4429 90.8968L8 99.3557" stroke="#2C4163" stroke-width="2" stroke-linecap="round"/>
<path d="M65.9855 70.2891C63.7804 92.7929 63.8163 104.286 65.9855 122.794" stroke="#2C4163" stroke-width="2" stroke-linecap="round"/>
<path d="M99.9744 70.2891C102.18 92.7929 102.144 104.286 99.9744 122.794" stroke="#2C4163" stroke-width="2" stroke-linecap="round"/>
<path d="M143.102 53.3827C143.102 78.2538 116.656 98.4158 84.0339 98.4158C51.4116 98.4158 21.2155 82.3322 24.9659 53.3827C28.7164 24.4331 50.2808 5.13269 84.0339 8.34951C117.787 11.5663 143.102 28.5115 143.102 53.3827Z" fill="#417DA0"/>
<path d="M87.2162 64.4005C87.5317 71.0243 74.1254 70.0083 75.7195 63.4298C77.3816 60.3742 85.6557 61.7694 87.2162 64.4005Z" fill="#2C4163"/>
<path d="M143.932 56.6242L142.938 56.5091L142.708 58.4958L143.701 58.6109L143.817 57.6176L143.932 56.6242ZM110.73 64.9701C110.206 64.7954 109.64 65.0786 109.465 65.6025C109.291 66.1265 109.574 66.6928 110.098 66.8674L110.414 65.9187L110.73 64.9701ZM112.074 67.4482C111.528 67.3656 111.019 67.7414 110.936 68.2875C110.854 68.8335 111.229 69.3432 111.775 69.4257L111.925 68.4369L112.074 67.4482ZM109.068 61.9105C108.523 61.8197 108.008 62.1877 107.917 62.7325C107.826 63.2773 108.194 63.7925 108.739 63.8833L108.903 62.8969L109.068 61.9105ZM143.817 57.6176L143.701 58.6109C146.119 58.891 147.578 59.264 148.334 59.6358C148.718 59.8252 148.782 59.9481 148.77 59.9263C148.716 59.8232 148.763 59.7215 148.745 59.7529C148.698 59.8348 148.548 60.0111 148.188 60.2561C147.844 60.4907 147.373 60.7445 146.776 61.0082C145.585 61.535 143.981 62.0629 142.09 62.5469C138.313 63.5139 133.499 64.2794 128.786 64.5292C124.052 64.78 119.521 64.5049 116.26 63.4559L115.954 64.4078L115.648 65.3598C119.252 66.5193 124.07 66.7819 128.891 66.5264C133.733 66.2698 138.678 65.485 142.586 64.4844C144.538 63.9847 146.257 63.4246 147.585 62.8374C148.249 62.544 148.836 62.2344 149.314 61.9089C149.777 61.5936 150.212 61.2131 150.478 60.7513C150.773 60.2389 150.862 59.6066 150.54 58.9957C150.262 58.4662 149.751 58.1043 149.217 57.8415C148.135 57.309 146.384 56.9085 143.932 56.6242L143.817 57.6176ZM115.954 64.4078C115.247 63.7007 115.247 63.7004 115.248 63.7002C115.248 63.7001 115.248 63.6999 115.248 63.6997C115.248 63.6994 115.249 63.6992 115.249 63.699C115.249 63.6985 115.25 63.6982 115.25 63.6981C115.25 63.6978 115.25 63.6981 115.249 63.6989C115.247 63.7006 115.243 63.7045 115.237 63.7104C115.224 63.7223 115.203 63.7422 115.173 63.7688C115.114 63.8222 115.021 63.9016 114.899 63.9962C114.655 64.1865 114.301 64.4309 113.87 64.6466C113.001 65.0813 111.901 65.3602 110.73 64.9701L110.414 65.9187L110.098 66.8674C111.949 67.4845 113.619 67.008 114.764 66.4354C115.34 66.1474 115.805 65.8253 116.127 65.5749C116.289 65.4491 116.417 65.3398 116.507 65.2593C116.552 65.219 116.587 65.1859 116.613 65.1613C116.626 65.1491 116.637 65.1389 116.645 65.1311C116.649 65.1272 116.652 65.1239 116.655 65.1212C116.656 65.1199 116.657 65.1187 116.659 65.1176C116.659 65.1171 116.66 65.1166 116.66 65.1162C116.66 65.1159 116.661 65.1156 116.661 65.1155C116.661 65.1152 116.661 65.1149 115.954 64.4078ZM115.954 64.4078L114.968 64.2434C114.525 66.8975 112.888 67.5712 112.074 67.4482L111.925 68.4369L111.775 69.4257C113.983 69.7595 116.375 67.9619 116.94 64.5723L115.954 64.4078ZM115.954 64.4078L116.849 63.9606C116.301 62.8654 115.682 62.0998 114.916 61.6705C114.123 61.226 113.33 61.2292 112.642 61.3439C112.305 61.4 111.973 61.4865 111.669 61.5688C111.352 61.6548 111.069 61.7354 110.771 61.8047C110.187 61.9399 109.64 62.0059 109.068 61.9105L108.903 62.8969L108.739 63.8833C109.677 64.0397 110.515 63.9169 111.222 63.7531C111.568 63.6728 111.908 63.5764 112.193 63.4991C112.491 63.4181 112.741 63.3551 112.971 63.3167C113.416 63.2425 113.693 63.2773 113.938 63.4151C114.211 63.5682 114.6 63.9357 115.06 64.8551L115.954 64.4078Z" fill="#2C4163"/>
<ellipse cx="68.913" cy="43.6628" rx="8.31599" ry="12.7512" fill="white"/>
<ellipse cx="68.913" cy="43.663" rx="4.40258" ry="5.88516" fill="#2C4163"/>
<ellipse cx="97.3193" cy="42.7509" rx="12.0874" ry="18.6347" fill="white"/>
<ellipse cx="97.3193" cy="42.7513" rx="6.04369" ry="8.56189" fill="#2C4163"/>
<path d="M95.8616 122.336C97.4951 122.759 98.8519 122.471 100.639 122.759C101.86 122.955 103.868 122.759 105.03 123" stroke="#2C4163" stroke-width="3" stroke-linecap="round"/>
<path d="M60.1541 122.554C60.4602 122.218 62.8106 121.951 63.3744 122.101C64.2806 122.342 65.4656 122.392 66.4149 122.241C67.2034 122.115 67.9673 122.283 68.7058 122.363C69.4689 122.446 70.4035 122.41 71.0434 122.874" stroke="#2C4163" stroke-width="3" stroke-linecap="round"/>
<circle cx="97.8232" cy="42.7515" r="16.6201" fill="white" fill-opacity="0.4"/>
<circle cx="93.2904" cy="39.2259" r="4.02912" fill="white" fill-opacity="0.3"/>
<path fill-rule="evenodd" clip-rule="evenodd" d="M100.108 27.8021C91.8202 26.3265 83.905 31.8492 82.4294 40.1374C80.9538 48.4257 86.4765 56.3409 94.7647 57.8165C103.053 59.2921 110.968 53.7694 112.444 45.4811C113.919 37.1929 108.397 29.2777 100.108 27.8021ZM78.1416 39.3741C80.0388 28.7177 90.2155 21.6171 100.872 23.5143C111.528 25.4116 118.629 35.5882 116.732 46.2445C114.834 56.9008 104.658 64.0015 94.0013 62.1042C83.345 60.207 76.2444 50.0304 78.1416 39.3741Z" fill="#2C4163"/>
<path fill-rule="evenodd" clip-rule="evenodd" d="M106.147 55.2929C107.133 54.6048 108.491 54.8464 109.179 55.8327L116.844 66.819C117.533 67.8053 117.291 69.1627 116.305 69.8509C115.318 70.5391 113.961 70.2974 113.273 69.3111L105.607 58.3248C104.919 57.3386 105.161 55.9811 106.147 55.2929Z" fill="#2C4163"/>
</svg>
