<svg width="158" height="188" viewBox="0 0 158 188" fill="none" xmlns="http://www.w3.org/2000/svg">
<path d="M142.837 158.886C141.01 173.638 95.7176 173.96 84.4821 173.96C73.2467 173.96 20.0121 175.274 22.3689 162.797C24.7256 150.32 65.8735 142.088 84.4821 149.815C103.091 157.542 144.663 144.134 142.837 158.886Z" fill="#1C232F"/>
<path d="M68.6621 128.686C69.9587 141.98 69.9376 148.77 68.6621 159.703" stroke="#2C4163" stroke-width="2" stroke-linecap="round"/>
<path d="M90.5742 128.686C89.2776 141.98 89.2987 148.77 90.5742 159.703" stroke="#2C4163" stroke-width="2" stroke-linecap="round"/>
<path d="M44.2273 108.965L44.7266 108.99L44.7775 107.991L44.2782 107.966L44.2527 108.465L44.2273 108.965ZM9.88761 95.3375C9.61197 95.3208 9.37501 95.5307 9.35835 95.8064C9.34169 96.082 9.55163 96.319 9.82727 96.3356L9.85744 95.8365L9.88761 95.3375ZM12.1401 91.4241C11.9123 91.268 11.6011 91.3261 11.445 91.5539C11.2889 91.7817 11.347 92.0929 11.5748 92.249L11.8574 91.8365L12.1401 91.4241ZM10.7616 93.4157C10.5004 93.3263 10.2161 93.4656 10.1266 93.7268C10.0372 93.9881 10.1765 94.2724 10.4377 94.3618L10.5997 93.8888L10.7616 93.4157ZM44.2527 108.465L44.2782 107.966C35.2735 107.507 30.6808 105.527 27.4066 103.209C25.7513 102.038 24.4287 100.779 23.0058 99.5255C21.5906 98.2791 20.0968 97.0591 18.1495 96.0361L17.917 96.4788L17.6845 96.9214C19.5256 97.8886 20.9486 99.0463 22.3448 100.276C23.7333 101.499 25.1168 102.814 26.8289 104.026C30.2893 106.475 35.076 108.498 44.2273 108.965L44.2527 108.465ZM17.917 96.4788L17.6327 96.8901C17.7085 96.9425 17.6964 96.9478 17.6684 96.905C17.6517 96.8794 17.6079 96.8039 17.6074 96.6904C17.6069 96.5594 17.6639 96.4512 17.7323 96.382C17.8285 96.2846 17.9228 96.286 17.8568 96.2968C17.8222 96.3024 17.7571 96.3076 17.6533 96.3073C17.2307 96.3058 16.488 96.218 15.5684 96.0878C13.7727 95.8335 11.3694 95.427 9.88761 95.3375L9.85744 95.8365L9.82727 96.3356C11.2557 96.422 13.5751 96.8155 15.4282 97.0779C16.3329 97.206 17.146 97.3055 17.6499 97.3072C17.7777 97.3077 17.905 97.3021 18.0177 97.2837C18.099 97.2705 18.2957 97.2345 18.4437 97.0848C18.5379 96.9894 18.6081 96.8513 18.6074 96.6863C18.6068 96.5388 18.5496 96.4254 18.5053 96.3577C18.4222 96.2306 18.2988 96.1348 18.2013 96.0675L17.917 96.4788ZM17.917 96.4788L18.2013 96.0675C17.4739 95.5647 16.6467 94.8786 15.6413 94.0669C14.6439 93.2617 13.4905 92.3495 12.1401 91.4241L11.8574 91.8365L11.5748 92.249C12.8922 93.1519 14.0214 94.0443 15.0131 94.845C15.9969 95.6392 16.8656 96.3599 17.6327 96.8901L17.917 96.4788ZM17.917 96.4788C18.0871 96.0086 18.0871 96.0086 18.087 96.0086C18.087 96.0086 18.087 96.0086 18.0869 96.0085C18.0868 96.0085 18.0866 96.0084 18.0863 96.0083C18.0857 96.0081 18.0849 96.0078 18.0839 96.0074C18.0818 96.0067 18.0786 96.0055 18.0744 96.004C18.066 96.001 18.0535 95.9965 18.0371 95.9905C18.0043 95.9787 17.9558 95.9612 17.8931 95.9385C17.7677 95.8933 17.5853 95.8275 17.3572 95.7454C16.901 95.5813 16.262 95.3519 15.5309 95.091C14.0693 94.5693 12.2375 93.921 10.7616 93.4157L10.5997 93.8888L10.4377 94.3618C11.9073 94.8649 13.7341 95.5115 15.1948 96.0328C15.9249 96.2933 16.563 96.5224 17.0186 96.6863C17.2464 96.7683 17.4285 96.834 17.5537 96.8792C17.6162 96.9017 17.6646 96.9192 17.6973 96.931C17.7136 96.9369 17.726 96.9414 17.7343 96.9444C17.7385 96.9459 17.7417 96.9471 17.7438 96.9478C17.7448 96.9482 17.7456 96.9485 17.7461 96.9487C17.7464 96.9488 17.7466 96.9488 17.7467 96.9489C17.7468 96.9489 17.7468 96.9489 17.7468 96.9489C17.7469 96.9489 17.7469 96.949 17.917 96.4788Z" fill="#2C4163"/>
<path d="M27.4555 51.3183C27.1664 52.3334 27.7682 53.3876 28.774 53.7078C37.7084 56.552 41.1132 60.5672 43.2574 64.2738C43.7959 65.2047 42.6183 66.187 41.7794 65.5141C41.6863 65.4394 41.5937 65.365 41.5014 65.291C38.6517 63.0037 36.1467 60.9932 32.4459 59.2422C32.428 59.3268 32.4015 59.411 32.3659 59.4934L25.3049 75.8521C26.4002 76.6624 26.8358 78.147 26.2726 79.4518L18.7237 96.9408C18.0671 98.462 16.3016 99.1629 14.7804 98.5063L13.0267 97.7493C11.5055 97.0927 10.8046 95.3272 11.4612 93.806L19.0101 76.317C19.6612 74.8086 21.4027 74.1067 22.9151 74.7353L29.9451 58.4485C29.9799 58.3679 30.0218 58.2924 30.0698 58.2227C29.3321 57.936 28.5488 57.6571 27.7119 57.3858C26.7093 57.0609 25.6517 57.6528 25.3631 58.6665C25.0744 59.6802 24.0187 60.2679 23.005 59.9793L20.34 59.2204C19.2776 58.9179 18.6616 57.8115 18.9641 56.7492L21.0045 49.5836C21.307 48.5213 22.4135 47.9053 23.4758 48.2078L26.1473 48.9686C27.1574 49.2562 27.7431 50.3082 27.4555 51.3183Z" fill="#2C4163"/>
<path d="M106.425 106.425L106.252 105.956L105.314 106.302L105.487 106.771L105.956 106.598L106.425 106.425ZM142.432 79.6566C142.666 79.5103 142.737 79.2018 142.591 78.9676C142.445 78.7334 142.136 78.6623 141.902 78.8086L142.167 79.2326L142.432 79.6566ZM136.667 85.7326L136.199 85.5571L136.192 85.5759L136.186 85.5953L136.667 85.7326ZM141.138 77.0649C141.046 76.8048 140.76 76.669 140.5 76.7617C140.24 76.8543 140.104 77.1403 140.196 77.4004L140.667 77.2327L141.138 77.0649ZM143.464 81.1345C143.686 80.9703 143.733 80.6571 143.569 80.4352C143.405 80.2132 143.092 80.1664 142.87 80.3307L143.167 80.7326L143.464 81.1345ZM105.956 106.598L105.487 106.771C106.291 108.951 107.359 110.476 108.657 111.408C109.964 112.347 111.455 112.649 113.029 112.467C116.134 112.107 119.596 109.857 122.872 106.831C126.167 103.787 129.35 99.8846 131.898 96.0863C134.44 92.2957 136.377 88.5685 137.148 85.87L136.667 85.7326L136.186 85.5953C135.457 88.1468 133.587 91.773 131.067 95.5293C128.553 99.278 125.419 103.116 122.193 106.096C118.948 109.094 115.686 111.152 112.914 111.474C111.55 111.632 110.316 111.369 109.24 110.596C108.155 109.817 107.185 108.486 106.425 106.425L105.956 106.598ZM136.667 85.7326C137.135 85.9082 137.135 85.9083 137.135 85.9085C137.135 85.9085 137.135 85.9086 137.135 85.9086C137.135 85.9087 137.135 85.9087 137.135 85.9087C137.135 85.9086 137.135 85.9083 137.135 85.9078C137.136 85.9067 137.137 85.9046 137.138 85.9016C137.14 85.8957 137.144 85.886 137.149 85.8728C137.16 85.8464 137.176 85.8058 137.199 85.7524C137.245 85.6455 137.315 85.4874 137.413 85.2888C137.608 84.8912 137.91 84.3327 138.333 83.6975C139.181 82.4251 140.509 80.8586 142.432 79.6566L142.167 79.2326L141.902 78.8086C139.825 80.1067 138.403 81.7901 137.501 83.1428C137.049 83.8201 136.726 84.4178 136.515 84.8484C136.409 85.0638 136.331 85.2377 136.279 85.3594C136.253 85.4202 136.234 85.468 136.221 85.5014C136.214 85.5181 136.209 85.5312 136.205 85.5405C136.203 85.5452 136.202 85.5489 136.201 85.5517C136.2 85.5531 136.2 85.5542 136.2 85.5551C136.199 85.5556 136.199 85.5559 136.199 85.5563C136.199 85.5564 136.199 85.5566 136.199 85.5567C136.199 85.5569 136.199 85.5571 136.667 85.7326ZM136.667 85.7326L137.082 86.0118C137.776 84.98 138.914 83.1959 139.817 81.4837C140.268 80.6291 140.668 79.7777 140.923 79.0391C141.051 78.67 141.148 78.3157 141.193 77.9947C141.238 77.682 141.241 77.3538 141.138 77.0649L140.667 77.2327L140.196 77.4004C140.221 77.4688 140.238 77.6102 140.203 77.8537C140.17 78.0889 140.094 78.3774 139.978 78.7121C139.747 79.3813 139.373 80.1815 138.933 81.0172C138.053 82.6857 136.936 84.4371 136.252 85.4535L136.667 85.7326ZM136.667 85.7326L136.903 86.1732C138.172 85.4929 138.984 84.8413 139.893 84.0572C140.797 83.2783 141.794 82.3708 143.464 81.1345L143.167 80.7326L142.87 80.3307C141.162 81.5944 140.131 82.5315 139.24 83.2999C138.355 84.0631 137.606 84.6614 136.431 85.292L136.667 85.7326Z" fill="#2C4163"/>
<path d="M118.818 48.1309L118.336 49.9318L130.86 71.6244L130.871 71.6432C129.674 72.5412 129.31 74.2124 130.077 75.5409L139.601 92.0375C140.43 93.4724 142.264 93.964 143.699 93.1356L145.353 92.1805C146.788 91.3521 147.28 89.5173 146.451 88.0824L136.927 71.5858C136.16 70.2574 134.531 69.7374 133.154 70.325L133.144 70.306L121.279 49.755C121.277 49.7529 121.276 49.7507 121.275 49.7486L120.619 48.6134L118.818 48.1309Z" fill="#2C4163"/>
<path d="M120.36 84.9282C118.622 118.042 100.809 136.439 78.6514 136.439C56.4937 136.439 39.5495 108.844 36.9428 84.9282C34.336 61.0123 51.7772 33.417 78.6514 33.417C105.526 33.417 122.098 51.8138 120.36 84.9282Z" fill="#936ACA"/>
<g clip-path="url(#clip0_10577_53092)">
<ellipse cx="67.6669" cy="68.1457" rx="6.72358" ry="10.3576" fill="white"/>
<ellipse cx="64.5029" cy="68.1457" rx="3.55954" ry="6.37392" fill="#2C4163"/>
<ellipse cx="90.6064" cy="68.1457" rx="6.72358" ry="10.3576" fill="white"/>
<ellipse cx="87.4424" cy="68.1457" rx="3.55954" ry="6.37392" fill="#2C4163"/>
</g>
<path d="M94.8628 160.074C93.3241 159.824 91.4604 159.192 89.9179 159.407C88.8641 159.553 87.7792 159.627 86.7111 159.453" stroke="#2C4163" stroke-width="3" stroke-linecap="round"/>
<path d="M63.8477 158.957C66.5301 158.957 69.1323 159.305 71.82 159.305" stroke="#2C4163" stroke-width="3" stroke-linecap="round"/>
<path d="M85.2754 85.3271C83.0261 93.3172 71.6627 93.4104 72.9753 86.9199" stroke="#2C4163" stroke-width="2" stroke-linecap="round"/>
<path fill-rule="evenodd" clip-rule="evenodd" d="M119.676 15.4002C119.884 15.3115 120.126 15.352 120.299 15.5047L122.99 18.2002L126.646 17.4627C126.865 17.4059 127.099 17.4815 127.249 17.6578C127.399 17.834 127.44 18.0804 127.353 18.2933C126.922 19.821 126.681 20.397 125.954 21.6772C126.539 22.9213 126.964 23.64 128.06 25.0011C128.185 25.1972 128.19 25.4464 128.075 25.644C127.959 25.8416 127.743 25.9533 127.516 25.9322C126.001 25.6082 125.159 25.4954 123.675 25.5734C122.904 26.9706 122.275 27.9946 121.203 29.0139C121.061 29.1921 120.83 29.2707 120.609 29.2166C120.387 29.1625 120.213 28.9852 120.159 28.7592C119.94 27.215 119.843 25.9408 119.303 24.5082C117.926 24.136 116.952 23.8992 115.515 23.1422C115.303 23.0564 115.155 22.8558 115.133 22.6248C115.112 22.3939 115.22 22.1725 115.413 22.0538C116.64 21.1502 117.527 20.5767 118.879 19.9498C119.075 18.4173 119.344 17.4537 119.317 15.9226C119.329 15.6914 119.468 15.4889 119.676 15.4002Z" fill="#2C4163"/>
<path fill-rule="evenodd" clip-rule="evenodd" d="M102.254 15.0155C102.404 15.0483 102.521 15.1652 102.557 15.317L102.993 17.8542L105.291 18.8796C105.434 18.9341 105.533 19.0673 105.548 19.2231C105.562 19.3789 105.489 19.5303 105.359 19.6137C104.529 20.2861 104.173 20.5088 103.276 20.9288C103.115 21.8426 103.07 22.4047 103.146 23.5833C103.138 23.7398 103.045 23.8791 102.905 23.9427C102.764 24.0062 102.602 23.983 102.485 23.8827C101.777 23.1113 101.357 22.7194 100.51 22.1814C99.5435 22.6486 98.8001 22.9661 97.8149 23.1077C97.6673 23.15 97.51 23.103 97.4089 22.9865C97.3079 22.8699 97.2807 22.7041 97.3387 22.5586C97.8173 21.6229 98.2578 20.8833 98.5165 19.8835C97.9028 19.1395 97.4585 18.6278 96.961 17.6485C96.8775 17.5182 96.8738 17.3498 96.9514 17.2142C97.0291 17.0786 97.1748 16.9992 97.3271 17.0095C98.3528 16.9922 99.0638 17.024 100.051 17.2081C100.753 16.4412 101.275 16.0158 101.854 15.1627C101.95 15.0399 102.105 14.9828 102.254 15.0155Z" fill="#2C4163"/>
<path fill-rule="evenodd" clip-rule="evenodd" d="M51.3833 23.0417C51.5152 23.0431 51.6349 23.1212 51.6921 23.2433L52.5052 25.3132L54.6301 25.7743C54.7604 25.7953 54.8678 25.8904 54.9072 26.0197C54.9465 26.149 54.911 26.2901 54.8156 26.3837C54.2313 27.0994 53.9689 27.3508 53.2837 27.8648C53.3078 28.6665 53.3684 29.15 53.6389 30.1339C53.6599 30.2677 53.6051 30.4022 53.4975 30.4808C53.39 30.5593 53.2484 30.5684 53.1323 30.5041C52.3978 29.9766 51.9738 29.7193 51.1626 29.4138C50.4266 29.9801 49.8532 30.3802 49.0443 30.6743C48.9269 30.7362 48.7855 30.7243 48.6796 30.6435C48.5737 30.5628 48.5216 30.4272 48.5452 30.2938C48.7863 29.4175 49.0295 28.7137 49.0732 27.8219C48.4235 27.3009 47.9579 26.9465 47.3654 26.2058C47.2718 26.1102 47.2392 25.9684 47.2812 25.84C47.3232 25.7115 47.4325 25.6186 47.5632 25.6003C48.4281 25.4043 49.0353 25.3055 49.903 25.2867C50.3629 24.5135 50.7297 24.0613 51.0705 23.237C51.1301 23.1161 51.2514 23.0404 51.3833 23.0417Z" fill="#2C4163"/>
<path fill-rule="evenodd" clip-rule="evenodd" d="M39.859 16.3169C39.9517 16.2887 40.0528 16.3171 40.1196 16.39L41.1427 17.6614L42.7332 17.5152C42.8291 17.5011 42.9252 17.544 42.9812 17.626C43.0371 17.7079 43.0431 17.8147 42.9967 17.9014C42.7437 18.5322 42.6148 18.7664 42.247 19.2782C42.4393 19.8348 42.5876 20.1604 42.9927 20.7903C43.0367 20.8795 43.0277 20.9859 42.9695 21.0648C42.9113 21.1436 42.814 21.1812 42.7185 21.1618C42.0882 20.9543 41.7346 20.8676 41.0991 20.8327C40.7071 21.3923 40.3927 21.7995 39.8901 22.1843C39.8213 22.2537 39.7196 22.2765 39.6276 22.2433C39.5357 22.2101 39.4695 22.1266 39.4569 22.0279C39.4341 21.3603 39.4504 20.8132 39.2859 20.1784C38.7164 19.9566 38.3124 19.8111 37.7349 19.4227C37.6484 19.3764 37.5945 19.2842 37.5958 19.1849C37.5971 19.0855 37.6534 18.9963 37.741 18.9546C38.3044 18.6261 38.7085 18.4226 39.3127 18.2178C39.4658 17.5741 39.624 17.1761 39.6825 16.5229C39.6978 16.425 39.7662 16.3451 39.859 16.3169Z" fill="#2C4163"/>
<path fill-rule="evenodd" clip-rule="evenodd" d="M107.971 24.5029C108.06 24.4844 108.152 24.5192 108.208 24.5929L109.058 25.8644L110.554 25.8605C110.644 25.8553 110.73 25.9034 110.776 25.9845C110.821 26.0657 110.818 26.1658 110.768 26.2428C110.479 26.8103 110.34 27.018 109.954 27.4649C110.088 28.0002 110.199 28.3164 110.525 28.9379C110.559 29.0248 110.542 29.1233 110.481 29.192C110.42 29.2607 110.326 29.2877 110.239 29.2616C109.668 29.0155 109.345 28.9051 108.755 28.8196C108.343 29.309 108.016 29.6627 107.515 29.9799C107.446 30.0388 107.349 30.0517 107.266 30.0131C107.183 29.9744 107.128 29.891 107.124 29.7978C107.158 29.173 107.218 28.6639 107.117 28.0579C106.604 27.8036 106.239 27.6341 105.733 27.2237C105.656 27.1733 105.613 27.0827 105.623 26.9902C105.632 26.8976 105.692 26.819 105.777 26.7874C106.33 26.5279 106.724 26.3717 107.304 26.2309C107.5 25.6432 107.681 25.285 107.789 24.6804C107.812 24.5903 107.882 24.5215 107.971 24.5029Z" fill="#2C4163"/>
<path fill-rule="evenodd" clip-rule="evenodd" d="M25.5791 29.1964C25.685 29.0367 25.8741 28.9527 26.0667 28.9796L29.2088 29.6262L31.4463 27.4019C31.5747 27.2597 31.7745 27.204 31.9617 27.2583C32.149 27.3127 32.2913 27.4675 32.3288 27.6578C32.7305 28.936 32.8264 29.4546 32.9049 30.6962C33.8917 31.301 34.5234 31.6097 35.9252 32.0583C36.1033 32.1386 36.2223 32.3118 36.2321 32.505C36.2419 32.6982 36.1408 32.8779 35.9713 32.9686C34.7535 33.4462 34.1075 33.7593 33.0969 34.5062C33.1984 35.8509 33.2278 36.8661 32.9429 38.0843C32.9248 38.2764 32.7985 38.4392 32.6172 38.5044C32.4359 38.5696 32.2311 38.5258 32.0888 38.3915C31.2215 37.4045 30.5643 36.5515 29.5223 35.7927C28.3793 36.1722 27.5832 36.4592 26.2203 36.5952C26.031 36.6336 25.834 36.5612 25.7121 36.4084C25.5902 36.2556 25.5645 36.0489 25.6458 35.8752C26.0934 34.6663 26.4544 33.8482 27.1182 32.776C26.5486 31.6041 26.2929 30.7994 25.5674 29.732C25.4686 29.5637 25.4731 29.356 25.5791 29.1964Z" fill="#2C4163"/>
<defs>
<clipPath id="clip0_10577_53092">
<rect width="36.3864" height="20.7152" fill="white" transform="translate(60.9434 57.7881)"/>
</clipPath>
</defs>
</svg>
