<svg xmlns="http://www.w3.org/2000/svg" width="64" height="64" fill="none"><g clip-path="url(#a)"><path stroke="#E0D8E9" stroke-linecap="round" stroke-width="8" d="M50.67 32A18.67 18.67 0 1 0 32 50.67"/><circle cx="57.33" cy="6.67" r="5.67" stroke="#262626" stroke-width="2"/><circle cx="1.33" cy="1.33" r="1.33" stroke="#262626" stroke-width="2" transform="matrix(1 0 0 -1 46.67 5.33)"/><circle cx="38.67" cy="6.67" r="5.67" stroke="#262626" stroke-width="2"/><path stroke="#262626" stroke-width="2" d="M43.58 5.33a7.96 7.96 0 0 1 8.84 0M34.32 63.9c-1.97-7.85-8.9-13.64-17.16-13.64S1.96 56.06 0 63.9M27.98 34.93c0 6.03-4.92 10.92-11.01 10.92S5.96 40.95 5.96 34.93C5.96 28.9 10.88 24 16.97 24s11.01 4.9 11.01 10.93Z"/></g><defs><clipPath id="a"><path fill="#fff" d="M0 0h64v64H0z"/></clipPath></defs></svg>