<svg xmlns="http://www.w3.org/2000/svg" width="64" height="64" fill="none"><g clip-path="url(#a)"><path fill="#E0D8E9" d="M36.89 21.9 56 41.02 41.35 55.66 22.24 36.55l-8.31 8.31L8 7.66l37.2 5.93-8.31 8.31Z"/><path stroke="#262626" stroke-width="2" d="M64 63.9c-1.87-7.46-8.47-12.97-16.32-12.97s-14.45 5.5-16.32 12.96M57.92 36.34c0 5.71-4.66 10.35-10.42 10.35a10.38 10.38 0 0 1-10.43-10.35c0-5.7 4.66-10.34 10.43-10.34 5.76 0 10.42 4.64 10.42 10.34ZM19.33 19.66V20c0-3.3-2.09-5.33-4.66-5.33C12.09 14.67 10 16.7 10 20v-.34"/><circle cx="14.67" cy="10" r="3.67" stroke="#262626" stroke-width="2"/><path stroke="#262626" stroke-width="2" d="M1 1h27.33v37.33H1zM6.67 24.67H18M6.67 31.33h5.66"/></g><defs><clipPath id="a"><path fill="#fff" d="M0 0h64v64H0z"/></clipPath></defs></svg>