<svg width="158" height="144" viewBox="0 0 158 144" fill="none" xmlns="http://www.w3.org/2000/svg">
<path d="M26.2531 74.5808C11.1533 57.2988 23.1367 32.7949 30.6842 30.5815M30.6842 30.5815C31.443 28.6749 35.1074 27.7226 36.4822 26.7155M30.6842 30.5815C33.0383 31.2818 34.3012 30.6463 36.974 30.3358M30.6842 30.5815C30.2429 27.6142 31.743 26.6516 34.2196 24.0986" stroke="#2C4163" stroke-width="2" stroke-linecap="round"/>
<path d="M127.995 74.6116C131.495 78.1118 134.995 90.6118 125.899 99.7215M125.899 99.7215C125.565 102.132 125.099 104.693 124.495 107.424M125.899 99.7215L118.228 104.23M125.899 99.7215L130.774 108.52" stroke="#2C4163" stroke-width="2" stroke-linecap="round"/>
<path d="M149.931 121.336C147.781 135.394 94.4521 135.701 81.2232 135.701C67.9943 135.701 5.31448 136.953 8.08935 125.063C10.8642 113.173 59.3129 105.328 81.2232 112.692C103.133 120.055 152.082 107.278 149.931 121.336Z" fill="#ECEDEF"/>
<path d="M67.3242 78.6211C63.4549 97.5376 63.518 107.199 67.3242 122.756" stroke="#2C4163" stroke-width="2" stroke-linecap="round"/>
<path d="M94.1895 77.6616C92.8997 96.1669 92.9207 105.618 94.1895 120.837" stroke="#2C4163" stroke-width="2" stroke-linecap="round"/>
<path d="M127.853 68.1255C134.766 82.2882 135.101 105.588 77.0128 104.024C18.9244 102.459 24.5028 77.8494 27.9879 65.124C31.473 52.3985 35.6594 29.0985 77.0128 29.0986C118.366 29.0988 120.941 53.9629 127.853 68.1255Z" fill="#C95100"/>
<g clip-path="url(#clip0_6267_100446)">
<ellipse cx="60.8782" cy="58.1961" rx="8.22879" ry="12.6175" fill="white"/>
<ellipse cx="64.7505" cy="58.1962" rx="4.35642" ry="7.7646" fill="#2C4163"/>
<ellipse cx="88.9529" cy="58.1961" rx="8.22879" ry="12.6175" fill="white"/>
<ellipse cx="92.8252" cy="58.1962" rx="4.35642" ry="7.7646" fill="#2C4163"/>
</g>
<path d="M89.4219 122.822C91.5298 122.003 93.2863 121.988 95.5264 122.197C96.7224 122.309 97.9598 121.975 99.1086 122.082" stroke="#2C4163" stroke-width="3" stroke-linecap="round"/>
<path d="M60.9452 122.463C62.7746 123.081 64.7248 122.7 66.596 122.901C67.8149 123.032 69.2073 122.279 70.3884 122.678" stroke="#2C4163" stroke-width="3" stroke-linecap="round"/>
<path d="M74.3176 80.4038C70.9145 80.1859 69.2255 78.6013 68.6077 79.0185C67.4015 79.8332 71.6399 83.2686 74.3179 82.9041C76.2994 82.6345 83.48 80.0551 82.6079 79.0188C82.1077 78.4243 77.2144 80.5893 74.3176 80.4038Z" fill="#2C4163" stroke="#2C4163" stroke-width="2" stroke-linecap="round" stroke-linejoin="round"/>
<path d="M104.5 33H50V26.5H62V8H78H93.5V26.5H104.5V33Z" fill="#2C4163"/>
<path d="M62 26.5H77H93.5M62 26.5H50V33H104.5V26.5H93.5M62 26.5V8H78H93.5V26.5" stroke="#2C4163" stroke-width="2" stroke-linecap="round" stroke-linejoin="round"/>
<defs>
<clipPath id="clip0_6267_100446">
<rect width="44.5323" height="25.235" fill="white" transform="translate(52.6494 45.5786)"/>
</clipPath>
</defs>
</svg>
