<svg width="96" height="96" viewBox="0 0 96 96" fill="none" xmlns="http://www.w3.org/2000/svg">
<g clip-path="url(#clip0_4918_103061)">
<path d="M42.5113 54.468L23 34.9567L37.9567 20L57.468 39.5113L65.951 31.0284L72 69L34.0284 62.951L42.5113 54.468Z" fill="#0D2534"/>
<path fill-rule="evenodd" clip-rule="evenodd" d="M59 54V59H42C40.8954 59 40 59.8954 40 61V76C40 77.6569 41.3431 79 43 79L43 93C43 94.6569 44.3431 96 46 96H90C91.6569 96 93 94.6569 93 93V79C94.6569 79 96 77.6569 96 76V61C96 59.8954 95.1046 59 94 59H77V54C77 51.7909 75.2091 50 73 50H63C60.7909 50 59 51.7909 59 54ZM73 53H63C62.4477 53 62 53.4477 62 54V59H74V54C74 53.4477 73.5523 53 73 53ZM93 62V76H69.5V73C69.5 72.1716 68.8284 71.5 68 71.5C67.1716 71.5 66.5 72.1716 66.5 73V76H43L43 62H93ZM66.5 79H46V93H90V79H69.5V81C69.5 81.8284 68.8284 82.5 68 82.5C67.1716 82.5 66.5 81.8284 66.5 81V79Z" fill="#DFE1E5"/>
<path fill-rule="evenodd" clip-rule="evenodd" d="M38.0598 14.9647C38.0598 23.2295 31.312 29.9294 22.9881 29.9294C14.6643 29.9294 7.9165 23.2295 7.9165 14.9647C7.9165 6.69993 14.6643 0 22.9881 0C31.312 0 38.0598 6.69993 38.0598 14.9647ZM34.5615 14.9647C34.5615 21.274 29.4035 26.4312 22.9881 26.4312C16.5728 26.4312 11.4148 21.274 11.4148 14.9647C11.4148 8.65541 16.5728 3.49826 22.9881 3.49826C29.4035 3.49826 34.5615 8.65541 34.5615 14.9647Z" fill="#DFE1E5"/>
<path d="M3.39307 51.7337C5.67736 42.6302 13.7172 35.9546 23.2274 35.9546C32.7377 35.9546 40.7775 42.6302 43.0618 51.7337L46.4549 50.8822C43.8034 40.3152 34.435 32.4563 23.2274 32.4563C12.0199 32.4563 2.65154 40.3152 0 50.8822L3.39307 51.7337Z" fill="#DFE1E5"/>
</g>
<defs>
<clipPath id="clip0_4918_103061">
<rect width="96" height="96" fill="white"/>
</clipPath>
</defs>
</svg>
