<svg width="96" height="96" viewBox="0 0 96 96" fill="none" xmlns="http://www.w3.org/2000/svg">
<g id="_Pictogram/Finn Stillinger" clip-path="url(#clip0_6735_123071)">
<path id="running" d="M76 48C76 32.536 63.464 20 48 20C32.536 20 20 32.536 20 48C20 63.464 32.536 76 48 76" stroke="#272032" stroke-width="12" stroke-linecap="round"/>
<g id="search">
<circle id="Ellipse 2" cx="86" cy="10" r="8.5" stroke="#DFE1E5" stroke-width="3"/>
<circle id="Ellipse 4" cx="2" cy="2" r="2" transform="matrix(1 0 0 -1 70 8)" stroke="#DFE1E5" stroke-width="3"/>
<circle id="Ellipse 3" cx="58" cy="10" r="8.5" stroke="#DFE1E5" stroke-width="3"/>
<path id="Ellipse 5" d="M65.3643 8C67.2649 6.73631 69.5464 6 71.9998 6C74.4533 6 76.7348 6.73631 78.6354 8" stroke="#DFE1E5" stroke-width="3"/>
</g>
<g id="registrering">
<path id="Ellipse 48" d="M31 67.488V68C31 63.0515 27.866 60 24 60C20.134 60 17 63.0515 17 68V67.488" stroke="#DFE1E5" stroke-width="3"/>
<circle id="Ellipse 45" cx="24" cy="53" r="5.5" stroke="#DFE1E5" stroke-width="3"/>
<rect id="Rectangle 22" x="3.5" y="39.5" width="41" height="56" stroke="#DFE1E5" stroke-width="3"/>
<path id="Line 7" d="M12 75H29" stroke="#DFE1E5" stroke-width="3"/>
<path id="Line 8" d="M12 85H20.5" stroke="#DFE1E5" stroke-width="3"/>
</g>
</g>
<defs>
<clipPath id="clip0_6735_123071">
<rect width="96" height="96" fill="white"/>
</clipPath>
</defs>
</svg>
