<svg width="96" height="96" viewBox="0 0 96 96" fill="none" xmlns="http://www.w3.org/2000/svg">
<g id="state=enabled, mini card=false" clip-path="url(#clip0_17_3513)">
<path id="heart" d="M75 39.6667C75 30.4619 67.9485 23 59.25 23C54.8422 23 50.8574 24.916 48.0014 28.0039C45.1426 24.916 41.1578 23 36.75 23C28.0515 23 21 30.4619 21 39.6667C21 44.3322 22.8116 48.5499 25.731 51.5752L25.5 51.5714L48 73L70.5 51.5714L70.269 51.5752C73.1884 48.5499 75 44.3322 75 39.6667Z" fill="#E2FDE8"/>
<g id="deal">
<path id="Vector" d="M65.6502 16.8434L88.1491 39.5694C89.6402 41.0755 89.6402 43.5175 88.1491 45.0236C86.658 46.5298 84.2404 46.5298 82.7493 45.0236L74.6497 36.8423L80.9494 43.206C82.4405 44.7122 82.4405 47.1541 80.9494 48.6603C79.4583 50.1664 77.0408 50.1664 75.5497 48.6603L69.25 42.297L73.7497 46.8423C75.2408 48.3485 75.2408 50.7904 73.7497 52.2965C72.2586 53.8027 69.8411 53.8027 68.35 52.2966L63.8502 47.7513L66.4997 50.4275C68.0095 51.9525 67.9847 54.4327 66.4447 55.9267C64.9552 57.3717 62.5973 57.3556 61.1272 55.8904L39.0001 33.8359L39 13.2666L54.2727 13.2666M67.45 15.0257L59.3504 23.207C57.3623 25.2152 54.1389 25.2152 52.1508 23.207L50.3306 21.3685C49.3445 20.3724 49.3355 18.7603 50.3104 17.753L63.0909 4.54759C65.017 2.55738 68.1612 2.47634 70.1854 4.36473L79.7272 13.2666L95 13.2667L95 34.1155L82.7493 34.1155" stroke="#202733" stroke-width="3"/>
</g>
<g id="bag">
<path id="Rectangle 5" d="M1.5 61C1.5 60.7239 1.72386 60.5 2 60.5H54C54.2761 60.5 54.5 60.7239 54.5 61V76C54.5 76.8284 53.8284 77.5 53 77.5H3C2.17157 77.5 1.5 76.8284 1.5 76V61Z" stroke="#202733" stroke-width="3"/>
<path id="Rectangle 7" d="M4.5 93V77.5H51.5V93C51.5 93.8284 50.8284 94.5 50 94.5H6C5.17157 94.5 4.5 93.8284 4.5 93Z" stroke="#202733" stroke-width="3"/>
<path id="Rectangle 6" d="M20.5 54C20.5 52.6193 21.6193 51.5 23 51.5H33C34.3807 51.5 35.5 52.6193 35.5 54V60.5H20.5V54Z" stroke="#202733" stroke-width="3"/>
<path id="Line 4" d="M28 73L28 81" stroke="#202733" stroke-width="3" stroke-linecap="round"/>
</g>
</g>
<defs>
<clipPath id="clip0_17_3513">
<rect width="96" height="96" fill="white"/>
</clipPath>
</defs>
</svg>
