<svg width="158" height="188" viewBox="0 0 158 188" fill="none" xmlns="http://www.w3.org/2000/svg">
<path d="M149.622 158.886C147.796 173.638 102.503 173.96 91.2678 173.96C80.0323 173.96 26.7978 175.274 29.1545 162.797C31.5112 150.32 72.6592 142.088 91.2678 149.815C109.876 157.542 151.449 144.134 149.622 158.886Z" fill="#1C232F"/>
<path d="M75.4473 128.686C76.7439 141.98 76.7228 148.77 75.4473 159.703" stroke="#2C4163" stroke-width="2" stroke-linecap="round"/>
<path d="M97.3608 128.686C96.0642 141.98 96.0853 148.77 97.3608 159.703" stroke="#2C4163" stroke-width="2" stroke-linecap="round"/>
<path d="M46.3394 90.8274L47.3375 90.8786L47.4436 88.88L46.4455 88.8289L46.3394 90.8274ZM19.5623 81.5013C19.0114 81.4678 18.5368 81.8878 18.5023 82.4394C18.4678 82.991 18.8864 83.4653 19.4372 83.4987L19.5623 81.5013ZM23.5672 75.176C23.1128 74.8631 22.4904 74.9788 22.177 75.4343C21.8636 75.8898 21.9779 76.5127 22.4323 76.8256L23.5672 75.176ZM20.7021 77.5603C20.1804 77.3808 19.6113 77.6591 19.431 78.1817C19.2508 78.7044 19.5276 79.2736 20.0493 79.453L20.7021 77.5603ZM46.4455 88.8289C39.557 88.4761 35.5757 87.0754 32.6159 85.429C31.1181 84.5958 29.8631 83.6899 28.5792 82.7688C27.3057 81.8552 25.9999 80.9236 24.4672 80.1147L23.5323 81.8853C24.9284 82.6222 26.1316 83.4771 27.4127 84.3962C28.6835 85.3079 30.0288 86.2811 31.6424 87.1787C34.9055 88.9938 39.1918 90.4613 46.3394 90.8274L46.4455 88.8289ZM23.4291 81.8226C23.4287 81.8223 23.419 81.8156 23.4036 81.8011C23.3882 81.7867 23.3644 81.762 23.3383 81.7256C23.2835 81.6492 23.2223 81.5253 23.2098 81.3623C23.1838 81.0236 23.3772 80.8429 23.3777 80.8424C23.3889 80.8317 23.3503 80.8687 23.2137 80.9334C23.0876 80.9932 22.9171 81.0585 22.7049 81.1234C21.8339 81.3898 20.5604 81.5619 19.5623 81.5013L19.4372 83.4987C20.6889 83.5747 22.2012 83.3688 23.2855 83.0371C23.7901 82.8827 24.3741 82.6519 24.7524 82.2924C24.9487 82.1058 25.2434 81.7343 25.2028 81.205C25.1622 80.676 24.814 80.3465 24.5704 80.1774L23.4291 81.8226ZM24.5704 80.1774C24.7026 80.2692 24.6357 80.3892 24.645 80.1116C24.6555 79.7972 24.7353 79.4723 24.8273 78.8851C24.9068 78.3775 24.9815 77.7197 24.8413 77.0586C24.6914 76.3511 24.3058 75.6845 23.5672 75.176L22.4323 76.8256C22.725 77.0271 22.8356 77.2401 22.886 77.4777C22.9462 77.7618 22.9253 78.1146 22.8526 78.579C22.7923 78.9639 22.6632 79.5724 22.6472 80.0486C22.6301 80.5617 22.7192 81.3296 23.4291 81.8226L24.5704 80.1774ZM23.9998 81C24.785 80.3795 24.7849 80.3793 24.7847 80.379C24.7846 80.3789 24.7844 80.3787 24.7843 80.3785C24.784 80.3782 24.7837 80.3778 24.7833 80.3774C24.7827 80.3765 24.782 80.3756 24.7811 80.3746C24.7795 80.3725 24.7775 80.37 24.7752 80.3671C24.7706 80.3614 24.7646 80.354 24.7573 80.345C24.7426 80.3272 24.7226 80.3031 24.6973 80.2736C24.6468 80.2145 24.5751 80.1331 24.4829 80.0349C24.2989 79.8387 24.0317 79.5732 23.6874 79.2821C23.0028 78.7032 21.9906 78.0034 20.7021 77.5603L20.0493 79.453C21.0379 79.793 21.8376 80.3399 22.3958 80.8119C22.6729 81.0462 22.8848 81.2573 23.0245 81.4062C23.0942 81.4805 23.1455 81.5389 23.1775 81.5764C23.1935 81.5951 23.2047 81.6086 23.2109 81.6162C23.214 81.6199 23.2158 81.6222 23.2165 81.623C23.2168 81.6234 23.2167 81.6234 23.2164 81.6229C23.2162 81.6227 23.216 81.6224 23.2157 81.622C23.2155 81.6218 23.2153 81.6216 23.2151 81.6213C23.215 81.6212 23.2149 81.621 23.2148 81.6209C23.2147 81.6207 23.2145 81.6205 23.9998 81Z" fill="#2C4163"/>
<path d="M127.145 84.9282C125.407 118.042 107.594 136.439 85.4366 136.439C63.2788 136.439 46.3347 108.844 43.7279 84.9282C41.1211 61.0123 58.5623 33.417 85.4366 33.417C112.311 33.417 128.883 51.8138 127.145 84.9282Z" fill="#8976A2"/>
<g clip-path="url(#clip0_6207_100382)">
<ellipse cx="74.4521" cy="68.1457" rx="6.72358" ry="10.3576" fill="white"/>
<ellipse cx="71.2881" cy="68.1459" rx="3.55954" ry="6.37392" fill="#2C4163"/>
<ellipse cx="97.3915" cy="68.1457" rx="6.72358" ry="10.3576" fill="white"/>
<ellipse cx="94.2275" cy="68.1459" rx="3.55954" ry="6.37392" fill="#2C4163"/>
</g>
<path d="M101.649 160.074C100.11 159.824 98.2465 159.192 96.7041 159.407C95.6502 159.553 94.5654 159.627 93.4973 159.453" stroke="#2C4163" stroke-width="3" stroke-linecap="round"/>
<path d="M70.6328 158.957C73.3153 158.957 75.9175 159.305 78.6051 159.305" stroke="#2C4163" stroke-width="3" stroke-linecap="round"/>
<path d="M92.0605 85.3271C89.8112 93.3172 78.4479 93.4104 79.7605 86.9199" stroke="#2C4163" stroke-width="2" stroke-linecap="round"/>
<path fill-rule="evenodd" clip-rule="evenodd" d="M126.461 15.4002C126.67 15.3115 126.911 15.352 127.084 15.5047L129.775 18.2002L133.431 17.4627C133.65 17.4059 133.884 17.4815 134.034 17.6578C134.184 17.834 134.225 18.0804 134.138 18.2933C133.708 19.821 133.466 20.397 132.739 21.6772C133.324 22.9213 133.749 23.64 134.846 25.0011C134.97 25.1972 134.975 25.4464 134.86 25.644C134.744 25.8416 134.528 25.9533 134.301 25.9322C132.786 25.6082 131.944 25.4954 130.46 25.5734C129.689 26.9706 129.06 27.9946 127.988 29.0139C127.846 29.1921 127.615 29.2707 127.394 29.2166C127.172 29.1625 126.998 28.9852 126.944 28.7592C126.725 27.215 126.628 25.9408 126.088 24.5082C124.711 24.136 123.737 23.8992 122.3 23.1422C122.088 23.0564 121.94 22.8558 121.918 22.6248C121.897 22.3939 122.005 22.1725 122.198 22.0538C123.425 21.1502 124.312 20.5767 125.664 19.9498C125.86 18.4173 126.129 17.4537 126.103 15.9226C126.114 15.6914 126.253 15.4889 126.461 15.4002Z" fill="#2C4163"/>
<path fill-rule="evenodd" clip-rule="evenodd" d="M109.04 15.0155C109.189 15.0483 109.306 15.1652 109.342 15.317L109.778 17.8542L112.076 18.8796C112.219 18.9341 112.319 19.0673 112.333 19.2231C112.347 19.3789 112.274 19.5303 112.144 19.6137C111.314 20.2861 110.958 20.5088 110.061 20.9288C109.9 21.8426 109.856 22.4047 109.931 23.5833C109.924 23.7398 109.83 23.8791 109.69 23.9427C109.55 24.0062 109.387 23.983 109.271 23.8827C108.562 23.1113 108.142 22.7194 107.295 22.1814C106.329 22.6486 105.585 22.9661 104.6 23.1077C104.453 23.15 104.295 23.103 104.194 22.9865C104.093 22.8699 104.066 22.7041 104.124 22.5586C104.603 21.6229 105.043 20.8833 105.302 19.8835C104.688 19.1395 104.244 18.6278 103.746 17.6485C103.663 17.5182 103.659 17.3498 103.737 17.2142C103.814 17.0786 103.96 16.9992 104.112 17.0095C105.138 16.9922 105.849 17.024 106.836 17.2081C107.538 16.4412 108.06 16.0158 108.639 15.1627C108.735 15.0399 108.89 14.9828 109.04 15.0155Z" fill="#2C4163"/>
<path fill-rule="evenodd" clip-rule="evenodd" d="M58.168 23.0417C58.2999 23.0431 58.4196 23.1212 58.4767 23.2433L59.2899 25.3132L61.4147 25.7743C61.545 25.7953 61.6524 25.8904 61.6918 26.0197C61.7312 26.149 61.6957 26.2901 61.6003 26.3837C61.016 27.0994 60.7536 27.3508 60.0684 27.8648C60.0924 28.6665 60.153 29.15 60.4236 30.1339C60.4446 30.2677 60.3897 30.4022 60.2822 30.4808C60.1747 30.5593 60.0331 30.5684 59.9169 30.5041C59.1825 29.9766 58.7585 29.7193 57.9472 29.4138C57.2113 29.9801 56.6379 30.3802 55.829 30.6743C55.7116 30.7362 55.5702 30.7243 55.4643 30.6435C55.3584 30.5628 55.3063 30.4272 55.3299 30.2938C55.571 29.4175 55.8141 28.7137 55.8578 27.8219C55.2082 27.3009 54.7426 26.9465 54.15 26.2058C54.0565 26.1102 54.0239 25.9684 54.0659 25.84C54.1078 25.7115 54.2172 25.6186 54.3479 25.6003C55.2127 25.4043 55.8199 25.3055 56.6877 25.2867C57.1475 24.5135 57.5144 24.0613 57.8552 23.237C57.9148 23.1161 58.0361 23.0404 58.168 23.0417Z" fill="#2C4163"/>
<path fill-rule="evenodd" clip-rule="evenodd" d="M46.6441 16.3169C46.7369 16.2887 46.8379 16.3171 46.9047 16.39L47.9279 17.6614L49.5184 17.5152C49.6143 17.5011 49.7104 17.544 49.7663 17.626C49.8222 17.7079 49.8282 17.8147 49.7818 17.9014C49.5289 18.5322 49.3999 18.7664 49.0321 19.2782C49.2245 19.8348 49.3728 20.1604 49.7778 20.7903C49.8218 20.8795 49.8128 20.9859 49.7546 21.0648C49.6965 21.1436 49.5992 21.1812 49.5037 21.1618C48.8734 20.9543 48.5198 20.8676 47.8842 20.8327C47.4923 21.3923 47.1779 21.7995 46.6752 22.1843C46.6065 22.2537 46.5047 22.2765 46.4128 22.2433C46.3208 22.2101 46.2547 22.1266 46.242 22.0279C46.2192 21.3603 46.2356 20.8132 46.071 20.1784C45.5016 19.9566 45.0976 19.8111 44.5201 19.4227C44.4336 19.3764 44.3797 19.2842 44.381 19.1849C44.3823 19.0855 44.4386 18.9963 44.5262 18.9546C45.0896 18.6261 45.4936 18.4226 46.0978 18.2178C46.251 17.5741 46.4091 17.1761 46.4676 16.5229C46.4829 16.425 46.5514 16.3451 46.6441 16.3169Z" fill="#2C4163"/>
<path fill-rule="evenodd" clip-rule="evenodd" d="M114.756 24.5029C114.845 24.4844 114.937 24.5192 114.993 24.5929L115.843 25.8644L117.339 25.8605C117.429 25.8553 117.516 25.9034 117.561 25.9845C117.606 26.0657 117.603 26.1658 117.553 26.2428C117.265 26.8103 117.125 27.018 116.74 27.4649C116.873 28.0002 116.985 28.3164 117.31 28.9379C117.344 29.0248 117.327 29.1233 117.266 29.192C117.205 29.2607 117.111 29.2877 117.024 29.2616C116.453 29.0155 116.13 28.9051 115.54 28.8196C115.128 29.309 114.801 29.6627 114.301 29.9799C114.231 30.0388 114.134 30.0517 114.051 30.0131C113.968 29.9744 113.913 29.891 113.909 29.7978C113.943 29.173 114.004 28.6639 113.902 28.0579C113.389 27.8036 113.025 27.6341 112.518 27.2237C112.441 27.1733 112.398 27.0827 112.408 26.9902C112.417 26.8976 112.477 26.819 112.562 26.7874C113.115 26.5279 113.509 26.3717 114.089 26.2309C114.285 25.6432 114.466 25.285 114.574 24.6804C114.597 24.5903 114.667 24.5215 114.756 24.5029Z" fill="#2C4163"/>
<path fill-rule="evenodd" clip-rule="evenodd" d="M32.3652 29.1964C32.4712 29.0367 32.6602 28.9527 32.8529 28.9796L35.9949 29.6262L38.2325 27.4019C38.3608 27.2597 38.5606 27.204 38.7479 27.2583C38.9351 27.3127 39.0774 27.4675 39.1149 27.6578C39.5166 28.936 39.6125 29.4546 39.691 30.6962C40.6779 31.301 41.3095 31.6097 42.7113 32.0583C42.8894 32.1386 43.0084 32.3118 43.0182 32.505C43.028 32.6982 42.9269 32.8779 42.7574 32.9686C41.5396 33.4462 40.8936 33.7593 39.8831 34.5062C39.9845 35.8509 40.0139 36.8661 39.729 38.0843C39.7109 38.2764 39.5846 38.4392 39.4033 38.5044C39.222 38.5696 39.0172 38.5258 38.8749 38.3915C38.0076 37.4045 37.3504 36.5515 36.3084 35.7927C35.1655 36.1722 34.3693 36.4592 33.0064 36.5952C32.8171 36.6336 32.6201 36.5612 32.4982 36.4084C32.3763 36.2556 32.3506 36.0489 32.432 35.8752C32.8795 34.6663 33.2406 33.8482 33.9043 32.776C33.3347 31.6041 33.079 30.7994 32.3535 29.732C32.2547 29.5637 32.2592 29.356 32.3652 29.1964Z" fill="#2C4163"/>
<path d="M25.5806 68.6944L11.1364 87.2496C11.0925 87.306 11.0645 87.3732 11.0554 87.4441L10.6461 90.6159C10.6096 90.899 10.8728 91.1281 11.1481 91.053L14.2666 90.2021C14.35 90.1794 14.4238 90.1302 14.4769 90.062L28.9279 71.498C29.0594 71.329 29.0346 71.0865 28.8716 70.9477L26.1555 68.6355C25.9821 68.4878 25.7205 68.5146 25.5806 68.6944Z" fill="#2C4163"/>
<path d="M114.968 100.806C114.968 100.806 114.138 100.903 113.111 101.276C113.876 101.214 114.569 101.07 114.968 100.806Z" fill="#2C4163"/>
<path d="M127.569 84.9025L126.667 84.4695L127.529 82.6654L128.431 83.0984L127.569 84.9025ZM110.828 104.061C110.519 104.519 109.898 104.638 109.441 104.328C108.983 104.018 108.863 103.396 109.172 102.939L110.828 104.061ZM109.081 101.908C108.58 101.675 108.361 101.08 108.593 100.579C108.825 100.077 109.418 99.8598 109.919 100.093L109.081 101.908ZM112.787 106.118C112.446 106.553 111.818 106.628 111.384 106.287C110.949 105.945 110.873 105.316 111.213 104.882L112.787 106.118ZM128.431 83.0984C129.62 83.6693 130.492 84.4192 130.986 85.3633C131.486 86.3178 131.535 87.3499 131.302 88.3547C130.85 90.2948 129.308 92.2945 127.474 94.0746C125.608 95.8869 123.302 97.6019 121.107 98.9605C118.928 100.309 116.781 101.355 115.229 101.772L114.707 99.8396C115.983 99.4962 117.937 98.5679 120.054 97.2578C122.155 95.9574 124.34 94.3279 126.082 92.6368C127.856 90.9138 129.04 89.2514 129.355 87.8975C129.504 87.2553 129.448 86.7324 129.216 86.2897C128.979 85.8366 128.495 85.3472 127.569 84.9025L128.431 83.0984ZM114.968 100.806C115.086 101.8 115.086 101.8 115.086 101.8C115.086 101.8 115.086 101.8 115.087 101.8C115.087 101.8 115.087 101.8 115.087 101.8C115.087 101.8 115.088 101.8 115.088 101.8C115.088 101.799 115.088 101.799 115.088 101.799C115.088 101.799 115.087 101.8 115.086 101.8C115.083 101.8 115.077 101.801 115.068 101.802C115.05 101.805 115.02 101.809 114.981 101.815C114.902 101.828 114.783 101.849 114.633 101.88C114.331 101.944 113.913 102.05 113.453 102.217L112.769 100.336C113.335 100.13 113.846 100.001 114.217 99.9222C114.402 99.883 114.555 99.8562 114.663 99.8388C114.718 99.8302 114.761 99.8239 114.793 99.8196C114.808 99.8174 114.821 99.8157 114.831 99.8145C114.836 99.8139 114.84 99.8134 114.843 99.813C114.844 99.8128 114.846 99.8127 114.847 99.8125C114.847 99.8124 114.848 99.8124 114.848 99.8123C114.849 99.8123 114.849 99.8123 114.849 99.8122C114.849 99.8122 114.849 99.8122 114.849 99.8122C114.85 99.8122 114.85 99.8122 114.968 100.806ZM113.453 102.217C112.479 102.571 111.442 103.152 110.828 104.061L109.172 102.939C110.129 101.522 111.627 100.75 112.769 100.336L113.453 102.217ZM115.52 101.641C114.891 102.057 113.97 102.211 113.193 102.274L113.029 100.279C113.782 100.218 114.246 100.083 114.416 99.971L115.52 101.641ZM113.193 102.274C112.407 102.337 111.565 102.321 110.856 102.26C110.501 102.23 110.167 102.188 109.88 102.136C109.618 102.088 109.319 102.018 109.081 101.908L109.919 100.093C109.914 100.09 110.003 100.124 110.236 100.167C110.445 100.205 110.714 100.24 111.022 100.266C111.641 100.319 112.371 100.332 113.029 100.279L113.193 102.274ZM115.828 101.318C115.038 102.65 114.35 104.123 112.787 106.118L111.213 104.882C112.67 103.022 113.232 101.773 114.108 100.294L115.828 101.318Z" fill="#2C4163"/>
<defs>
<clipPath id="clip0_6207_100382">
<rect width="36.3864" height="20.7152" fill="white" transform="translate(67.7285 57.7881)"/>
</clipPath>
</defs>
</svg>
