<svg width="158" height="157" viewBox="0 0 158 157" fill="none" xmlns="http://www.w3.org/2000/svg">
<path d="M133.368 78.6576C143.541 61.7382 128.297 39.165 123.39 35.5762M123.39 35.5762C122.396 33.7813 118.64 33.3016 117.149 32.477M123.39 35.5762C121.144 36.5695 119.811 36.0994 117.12 36.1304M123.39 35.5762C123.451 32.5769 121.841 31.8123 119.061 29.5942" stroke="#2C4163" stroke-width="2" stroke-linecap="round"/>
<path d="M23.319 83.9724C8.21926 66.6904 20.2026 42.1865 27.7501 39.9731M27.7501 39.9731C28.509 38.0665 32.1733 37.1142 33.5481 36.1071M27.7501 39.9731C30.1042 40.6734 31.3671 40.038 34.0399 39.7274M27.7501 39.9731C27.3088 37.0058 28.8089 36.0432 31.2855 33.4902" stroke="#2C4163" stroke-width="2" stroke-linecap="round"/>
<path d="M8.06863 133.678C10.2192 147.736 63.5479 148.043 76.7768 148.043C90.0057 148.043 152.686 149.296 149.911 137.406C147.136 125.516 98.6871 117.67 76.7768 125.034C54.8665 132.397 5.91808 119.62 8.06863 133.678Z" fill="#ECEDEF"/>
<path d="M67.3242 90.9634C63.4549 109.88 63.518 119.541 67.3242 135.099" stroke="#2C4163" stroke-width="2" stroke-linecap="round"/>
<path d="M94.1895 90.0039C92.8997 108.509 92.9207 117.96 94.1895 133.18" stroke="#2C4163" stroke-width="2" stroke-linecap="round"/>
<path d="M139.269 80.5131C147.733 94.8263 148.143 118.374 77.0169 116.793C5.89043 115.212 12.721 90.3403 16.9883 77.4796C21.2556 64.6189 26.3816 41.0712 77.0169 41.0713C127.652 41.0714 130.805 66.1999 139.269 80.5131Z" fill="#00893C"/>
<path d="M80.1193 88.0799C79.9806 91.9035 71.5385 90.5686 70.9517 87.5874C74.2029 86.9349 76.1218 87.4146 80.1193 88.0799Z" fill="#2C4163"/>
<g clip-path="url(#clip0_6216_51485)">
<ellipse cx="60.8782" cy="70.5384" rx="8.22879" ry="12.6175" fill="white"/>
<ellipse cx="60.8784" cy="64.7149" rx="4.35642" ry="6.79403" fill="#2C4163"/>
<ellipse cx="88.9529" cy="70.5384" rx="8.22879" ry="12.6175" fill="white"/>
<ellipse cx="88.9531" cy="64.7149" rx="4.35642" ry="6.79403" fill="#2C4163"/>
</g>
<path d="M89.4219 135.164C91.5298 134.345 93.2863 134.33 95.5264 134.539C96.7224 134.651 97.9598 134.317 99.1086 134.424" stroke="#2C4163" stroke-width="3" stroke-linecap="round"/>
<path d="M60.9452 134.805C62.7746 135.423 64.7248 135.042 66.596 135.243C67.8149 135.374 69.2073 134.622 70.3884 135.021" stroke="#2C4163" stroke-width="3" stroke-linecap="round"/>
<path fill-rule="evenodd" clip-rule="evenodd" d="M75.1258 12.6889C61.3296 -1.75659 55.7866 25.3504 75.6028 32.9126C94.065 23.6053 88.9617 -2.60219 75.1258 12.6889Z" fill="#2C4163"/>
<defs>
<clipPath id="clip0_6216_51485">
<rect width="44.5323" height="25.235" fill="white" transform="translate(52.6494 57.9209)"/>
</clipPath>
</defs>
</svg>
