<svg width="158" height="158" viewBox="0 0 158 158" fill="none" xmlns="http://www.w3.org/2000/svg">
<path d="M133.368 79.6259C143.541 62.7065 128.297 40.1332 123.39 36.5444M123.39 36.5444C122.396 34.7495 118.64 34.2699 117.149 33.4453M123.39 36.5444C121.144 37.5378 119.811 37.0677 117.12 37.0987M123.39 36.5444C123.451 33.5451 121.841 32.7806 119.061 30.5625" stroke="#2C4163" stroke-width="2" stroke-linecap="round"/>
<path d="M23.319 84.9406C8.21926 67.6586 20.2026 43.1548 27.7501 40.9414M27.7501 40.9414C28.509 39.0348 32.1733 38.0825 33.5481 37.0754M27.7501 40.9414C30.1042 41.6417 31.3671 41.0062 34.0399 40.6956M27.7501 40.9414C27.3088 37.9741 28.8089 37.0114 31.2855 34.4585" stroke="#2C4163" stroke-width="2" stroke-linecap="round"/>
<path d="M8.06863 134.647C10.2192 148.704 63.5479 149.012 76.7768 149.012C90.0057 149.012 152.686 150.264 149.911 138.374C147.136 126.484 98.6871 118.639 76.7768 126.002C54.8665 133.366 5.91808 120.589 8.06863 134.647Z" fill="#1C232F"/>
<path d="M67.3242 91.9316C63.4549 110.848 63.518 120.509 67.3242 136.067" stroke="#2C4163" stroke-width="2" stroke-linecap="round"/>
<path d="M94.1895 90.9722C92.8997 109.477 92.9207 118.929 94.1895 134.148" stroke="#2C4163" stroke-width="2" stroke-linecap="round"/>
<path d="M139.269 81.4813C147.733 95.7945 148.143 119.342 77.0169 117.761C5.89043 116.18 12.721 91.3086 16.9883 78.4479C21.2556 65.5871 26.3816 42.0394 77.0169 42.0396C127.652 42.0397 130.805 67.1682 139.269 81.4813Z" fill="#378F53"/>
<path d="M80.1193 89.0481C79.9806 92.8718 71.5385 91.5369 70.9517 88.5556C74.2029 87.9031 76.1218 88.3828 80.1193 89.0481Z" fill="#2C4163"/>
<g clip-path="url(#clip0_6216_51441)">
<ellipse cx="60.8782" cy="71.5066" rx="8.22879" ry="12.6175" fill="white"/>
<ellipse cx="60.8784" cy="65.6832" rx="4.35642" ry="6.79403" fill="#2C4163"/>
<ellipse cx="88.9529" cy="71.5066" rx="8.22879" ry="12.6175" fill="white"/>
<ellipse cx="88.9531" cy="65.6832" rx="4.35642" ry="6.79403" fill="#2C4163"/>
</g>
<path d="M89.4219 136.132C91.5298 135.314 93.2863 135.298 95.5264 135.508C96.7224 135.619 97.9598 135.285 99.1086 135.393" stroke="#2C4163" stroke-width="3" stroke-linecap="round"/>
<path d="M60.9452 135.773C62.7746 136.391 64.7248 136.01 66.596 136.211C67.8149 136.342 69.2073 135.59 70.3884 135.989" stroke="#2C4163" stroke-width="3" stroke-linecap="round"/>
<path fill-rule="evenodd" clip-rule="evenodd" d="M75.1258 13.6571C61.3296 -0.788333 55.7866 26.3187 75.6028 33.8809C94.065 24.5736 88.9617 -1.63392 75.1258 13.6571Z" fill="#2C4163"/>
<defs>
<clipPath id="clip0_6216_51441">
<rect width="44.5323" height="25.235" fill="white" transform="translate(52.6494 58.8892)"/>
</clipPath>
</defs>
</svg>
