<svg width="64" height="64" viewBox="0 0 64 64" fill="none" xmlns="http://www.w3.org/2000/svg">
<g id="_Pictogram/Rekrutteringstreff" clip-path="url(#clip0_4264_1861)">
<path id="heart" d="M50 26.4446C50 20.3081 45.299 15.3335 39.5 15.3335C36.5615 15.3335 33.9049 16.6108 32.0009 18.6695C30.0951 16.6108 27.4385 15.3335 24.5 15.3335C18.701 15.3335 14 20.3081 14 26.4446C14 29.5549 15.2077 32.3668 17.154 34.3837L17 34.3811L32 48.6668L47 34.3811L46.846 34.3837C48.7923 32.3668 50 29.5549 50 26.4446Z" fill="#FFC2C2"/>
<g id="Union">
<path fill-rule="evenodd" clip-rule="evenodd" d="M25.3732 9.97648C25.3732 15.4863 20.8746 19.953 15.3254 19.953C9.7762 19.953 5.27767 15.4863 5.27767 9.97648C5.27767 4.46662 9.7762 0 15.3254 0C20.8746 0 25.3732 4.46662 25.3732 9.97648ZM23.041 9.97648C23.041 14.1827 19.6023 17.6208 15.3254 17.6208C11.0485 17.6208 7.60984 14.1827 7.60984 9.97648C7.60984 5.77027 11.0485 2.33218 15.3254 2.33218C19.6023 2.33218 23.041 5.77027 23.041 9.97648Z" fill="#23262A"/>
<path d="M2.26205 34.4891C3.78491 28.4201 9.14482 23.9697 15.485 23.9697C21.8251 23.9697 27.185 28.4201 28.7079 34.4891L30.9699 33.9215C29.2022 26.8768 22.9567 21.6375 15.485 21.6375C8.01326 21.6375 1.76769 26.8768 0 33.9215L2.26205 34.4891Z" fill="#23262A"/>
</g>
<path id="Vector (Stroke)" fill-rule="evenodd" clip-rule="evenodd" d="M45.7748 28.641C44.8244 27.7543 43.3512 27.7918 42.4459 28.7272L33.9256 37.5308C33.6539 37.8115 33.6565 38.2647 33.9312 38.5421L35.1446 39.7678C36.0787 40.7113 37.589 40.7113 38.5231 39.7678L43.9228 34.3136L45.3441 35.7207L44.8408 36.229L55.2504 46.7437L62.0001 46.7437L62.0001 34.8444L52.4242 34.8444L45.7748 28.641ZM57.2304 48.7437L59.1434 50.6761C60.5233 52.0699 60.5233 54.3255 59.1434 55.7193C58.0976 56.7757 56.5588 57.0346 55.2713 56.496C55.1207 57.0995 54.8115 57.6712 54.3437 58.1437C53.2978 59.2002 51.759 59.4591 50.4715 58.9204C50.3209 59.5239 50.0117 60.0954 49.5439 60.5679C48.4871 61.6353 46.9271 61.8885 45.6316 61.3275C45.4736 61.9446 45.1494 62.527 44.6595 63.0022C43.2747 64.3457 41.0788 64.3305 39.7123 62.9685L24.6668 47.9724L24.6667 32.8444L35.6778 32.8444L41.0088 27.3363C42.6717 25.6181 45.3908 25.5475 47.1392 27.1786L53.2123 32.8444L64.0001 32.8444L64.0001 48.7437L57.2304 48.7437ZM33.7422 34.8444L26.6668 34.8444L26.6668 47.1421L41.1242 61.552C41.7178 62.1437 42.6657 62.15 43.2669 61.5667C43.8914 60.9609 43.9045 59.9524 43.2974 59.3302C43.2969 59.3296 43.2963 59.3291 43.2958 59.3285L41.5229 57.5378L42.9442 56.1307L44.7105 57.9147L44.7249 57.9294L45.9441 59.1608C46.5468 59.7696 47.5198 59.7696 48.1226 59.1608C48.7308 58.5464 48.7308 57.5462 48.1226 56.9317L45.1228 53.9015L46.5441 52.4945L50.7438 56.7366C51.3466 57.3455 52.3196 57.3455 52.9224 56.7366C53.5306 56.1222 53.5306 55.122 52.9224 54.5076L48.7226 50.2651L50.1439 48.858L55.5436 54.3122C56.1464 54.921 57.1194 54.921 57.7221 54.3122C58.3304 53.6978 58.3304 52.6976 57.7221 52.0831L43.4337 37.6504L39.9444 41.1749C38.2276 42.909 35.44 42.909 33.7233 41.1749L32.5099 39.9492C31.4697 38.8985 31.4603 37.2022 32.4884 36.1399L33.7422 34.8444Z" fill="#23262A"/>
</g>
<defs>
<clipPath id="clip0_4264_1861">
<rect width="64" height="64" fill="white"/>
</clipPath>
</defs>
</svg>
