<svg width="96" height="96" viewBox="0 0 96 96" fill="none" xmlns="http://www.w3.org/2000/svg">
<g clip-path="url(#clip0_4918_103066)">
<path d="M75 39.6667C75 30.4619 67.9485 23 59.25 23C54.8422 23 50.8574 24.916 48.0014 28.0039C45.1426 24.916 41.1578 23 36.75 23C28.0515 23 21 30.4619 21 39.6667C21 44.3322 22.8116 48.5499 25.731 51.5752L25.5 51.5714L48 73L70.5 51.5714L70.269 51.5752C73.1884 48.5499 75 44.3322 75 39.6667Z" fill="#490B10"/>
<path fill-rule="evenodd" clip-rule="evenodd" d="M38.0598 14.9647C38.0598 23.2295 31.312 29.9294 22.9881 29.9294C14.6643 29.9294 7.9165 23.2295 7.9165 14.9647C7.9165 6.69993 14.6643 0 22.9881 0C31.312 0 38.0598 6.69993 38.0598 14.9647ZM34.5615 14.9647C34.5615 21.274 29.4035 26.4312 22.9881 26.4312C16.5728 26.4312 11.4148 21.274 11.4148 14.9647C11.4148 8.65541 16.5728 3.49826 22.9881 3.49826C29.4035 3.49826 34.5615 8.65541 34.5615 14.9647Z" fill="#DFE1E5"/>
<path d="M3.39307 51.7337C5.67736 42.6302 13.7172 35.9546 23.2274 35.9546C32.7377 35.9546 40.7775 42.6302 43.0618 51.7337L46.4549 50.8822C43.8034 40.3152 34.435 32.4563 23.2274 32.4563C12.0199 32.4563 2.65154 40.3152 0 50.8822L3.39307 51.7337Z" fill="#DFE1E5"/>
<path fill-rule="evenodd" clip-rule="evenodd" d="M68.6621 42.9615C67.2364 41.6314 65.0267 41.6876 63.6687 43.0908L50.8882 56.2962C50.4807 56.7173 50.4847 57.3971 50.8966 57.8132L52.7168 59.6517C54.1179 61.067 56.3833 61.067 57.7845 59.6517L65.8841 51.4704L68.016 53.581L67.2611 54.3435L82.8755 70.1155L93 70.1155L93 52.2667L78.6362 52.2667L68.6621 42.9615ZM85.8455 73.1155L88.715 76.0141C90.7848 78.1048 90.7848 81.4883 88.715 83.579C87.1463 85.1636 84.8381 85.5519 82.9068 84.744C82.6809 85.6493 82.2171 86.5068 81.5154 87.2156C79.9466 88.8002 77.6383 89.1886 75.7071 88.3806C75.4812 89.2858 75.0174 90.1431 74.3157 90.8519C72.7306 92.453 70.3905 92.8328 68.4473 91.9913C68.2103 92.917 67.7239 93.7905 66.9892 94.5033C64.912 96.5185 61.618 96.4958 59.5683 94.4528L37.0001 71.9587L37 49.2667L53.5166 49.2666L61.513 41.0044C64.0074 38.4271 68.0861 38.3213 70.7086 40.7679L79.8183 49.2667L96 49.2667L96 73.1155L85.8455 73.1155ZM50.6132 52.2666L40 52.2667L40.0001 70.7131L61.6861 92.328C62.5766 93.2155 63.9984 93.225 64.9003 92.3501C65.8369 91.4414 65.8566 89.9286 64.946 88.9953C64.9452 88.9945 64.9444 88.9936 64.9435 88.9928L62.2843 86.3067L64.4162 84.196L67.0656 86.8721L67.0873 86.8941L68.916 88.7412C69.8201 89.6545 71.2796 89.6545 72.1837 88.7412C73.0961 87.8196 73.0961 86.3192 72.1837 85.3976L67.684 80.8523L69.816 78.7417L76.1156 85.105C77.0198 86.0182 78.4793 86.0182 79.3834 85.105C80.2958 84.1834 80.2958 82.683 79.3834 81.7614L73.0838 75.3976L75.2157 73.287L83.3153 81.4683C84.2194 82.3816 85.679 82.3816 86.5831 81.4683C87.4955 80.5467 87.4955 79.0463 86.5831 78.1247L65.1504 56.4756L59.9164 61.7624C57.3413 64.3635 53.1599 64.3635 50.5848 61.7624L48.7647 59.9238C47.2044 58.3478 47.1903 55.8033 48.7325 54.2099L50.6132 52.2666Z" fill="#DFE1E5"/>
</g>
<defs>
<clipPath id="clip0_4918_103066">
<rect width="96" height="96" fill="white"/>
</clipPath>
</defs>
</svg>
