<svg xmlns="http://www.w3.org/2000/svg" width="64" height="64" fill="none"><g clip-path="url(#a)"><path fill="#CCF1D6" d="M12.43 35.82 32 55.33l19.58-19.51a11.86 11.86 0 0 0-16.75-16.8L32 21.83l-2.82-2.81a11.86 11.86 0 0 0-16.75 16.8Z"/><path stroke="#262626" stroke-width="2" d="m43.77 11.23 15 15.15c.99 1 .99 2.63 0 3.64-1 1-2.61 1-3.6 0l-5.4-5.46 4.2 4.24c.99 1 .99 2.64 0 3.64-1 1-2.6 1-3.6 0l-4.2-4.24 3 3.03c.99 1 .99 2.63 0 3.63-1 1-2.6 1-3.6 0l-3-3.03 1.76 1.79c1.01 1.02 1 2.67-.03 3.66-1 .97-2.57.96-3.55-.02L26 22.56V8.84h10.18m8.79 1.18-5.4 5.45a3.37 3.37 0 0 1-4.8 0l-1.22-1.22a1.73 1.73 0 0 1-.01-2.41l8.52-8.8a3.37 3.37 0 0 1 4.73-.13l6.36 5.93h10.18v13.9h-8.16M1 40.67c0-.19.15-.34.33-.34H36c.18 0 .33.15.33.34v10a1 1 0 0 1-1 1H2a1 1 0 0 1-1-1v-10ZM3 62V51.67h31.33V62a1 1 0 0 1-1 1H4a1 1 0 0 1-1-1ZM13.67 36c0-.92.74-1.67 1.66-1.67H22c.92 0 1.67.75 1.67 1.67v4.33h-10V36Z"/><path stroke="#262626" stroke-linecap="round" stroke-width="2" d="M18.67 48.67V54"/></g><defs><clipPath id="a"><path fill="#fff" d="M0 0h64v64H0z"/></clipPath></defs></svg>