<svg width="96" height="96" viewBox="0 0 96 96" fill="none" xmlns="http://www.w3.org/2000/svg">
<g clip-path="url(#clip0_4918_103034)">
<path d="M50.4977 35.0148L72 56.5171L55.5171 73L34.0148 51.4977L24.6663 60.8462L18 19L59.8463 25.6663L50.4977 35.0148Z" fill="#272032"/>
<path d="M96 96.0001C93.3064 85.2654 83.8063 77.3335 72.5 77.3335C61.1937 77.3335 51.6936 85.2654 49 96.0001" stroke="#DFE1E5" stroke-width="3"/>
<path d="M87.1888 56.3333C87.1888 64.5155 80.5056 71.1666 72.2388 71.1666C63.9721 71.1666 57.2888 64.5155 57.2888 56.3333C57.2888 48.1511 63.9721 41.5 72.2388 41.5C80.5056 41.5 87.1888 48.1511 87.1888 56.3333Z" stroke="#DFE1E5" stroke-width="3"/>
<path d="M29 29.488V30C29 25.0515 25.866 22 22 22C18.134 22 15 25.0515 15 30V29.488" stroke="#DFE1E5" stroke-width="3"/>
<circle cx="22" cy="15" r="5.5" stroke="#DFE1E5" stroke-width="3"/>
<rect x="1.5" y="1.5" width="41" height="56" stroke="#DFE1E5" stroke-width="3"/>
<path d="M10 37H27" stroke="#DFE1E5" stroke-width="3"/>
<path d="M10 47H18.5" stroke="#DFE1E5" stroke-width="3"/>
</g>
<defs>
<clipPath id="clip0_4918_103034">
<rect width="96" height="96" fill="white"/>
</clipPath>
</defs>
</svg>
