<svg width="158" height="144" viewBox="0 0 158 144" fill="none" xmlns="http://www.w3.org/2000/svg">
<path d="M26.2531 74.7111C11.1533 57.4291 23.1367 32.9253 30.6842 30.7119M30.6842 30.7119C31.443 28.8053 35.1074 27.853 36.4822 26.8459M30.6842 30.7119C33.0383 31.4122 34.3012 30.7767 36.974 30.4661M30.6842 30.7119C30.2429 27.7446 31.743 26.7819 34.2196 24.229" stroke="#2C4163" stroke-width="2" stroke-linecap="round"/>
<path d="M127.995 74.742C131.495 78.2422 134.995 90.7422 125.899 99.8519M125.899 99.8519C125.565 102.263 125.099 104.824 124.495 107.555M125.899 99.8519L118.228 104.36M125.899 99.8519L130.774 108.651" stroke="#2C4163" stroke-width="2" stroke-linecap="round"/>
<path d="M149.931 121.466C147.781 135.524 94.4521 135.831 81.2232 135.831C67.9943 135.831 5.31448 137.084 8.08935 125.194C10.8642 113.304 59.3129 105.458 81.2232 112.822C103.133 120.185 152.082 107.409 149.931 121.466Z" fill="#1C232F"/>
<path d="M67.3242 78.7515C63.4549 97.668 63.518 107.329 67.3242 122.887" stroke="#2C4163" stroke-width="2" stroke-linecap="round"/>
<path d="M94.1895 77.792C92.8997 96.2973 92.9207 105.748 94.1895 120.968" stroke="#2C4163" stroke-width="2" stroke-linecap="round"/>
<path d="M127.853 68.2559C134.766 82.4185 135.101 105.719 77.0128 104.154C18.9244 102.59 24.5028 77.9798 27.9879 65.2543C31.473 52.5289 35.6594 29.2289 77.0128 29.229C118.366 29.2291 120.941 54.0933 127.853 68.2559Z" fill="#C56333"/>
<g clip-path="url(#clip0_6267_100418)">
<ellipse cx="60.8782" cy="58.3265" rx="8.22879" ry="12.6175" fill="white"/>
<ellipse cx="64.7505" cy="58.3266" rx="4.35642" ry="7.7646" fill="#2C4163"/>
<ellipse cx="88.9529" cy="58.3265" rx="8.22879" ry="12.6175" fill="white"/>
<ellipse cx="92.8252" cy="58.3266" rx="4.35642" ry="7.7646" fill="#2C4163"/>
</g>
<path d="M89.4219 122.952C91.5298 122.133 93.2863 122.118 95.5264 122.328C96.7224 122.439 97.9598 122.105 99.1086 122.212" stroke="#2C4163" stroke-width="3" stroke-linecap="round"/>
<path d="M60.9452 122.593C62.7746 123.211 64.7248 122.83 66.596 123.031C67.8149 123.162 69.2073 122.41 70.3884 122.809" stroke="#2C4163" stroke-width="3" stroke-linecap="round"/>
<path d="M74.3176 80.5342C70.9145 80.3162 69.2255 78.7317 68.6077 79.1489C67.4015 79.9635 71.6399 83.3989 74.3179 83.0345C76.2994 82.7648 83.48 80.1855 82.6079 79.1492C82.1077 78.5547 77.2144 80.7197 74.3176 80.5342Z" fill="#2C4163" stroke="#2C4163" stroke-width="2" stroke-linecap="round" stroke-linejoin="round"/>
<path d="M104.5 33.1304H50V26.6304H62V8.13037H78H93.5V26.6304H104.5V33.1304Z" fill="#2C4163"/>
<path d="M62 26.6304H77H93.5M62 26.6304H50V33.1304H104.5V26.6304H93.5M62 26.6304V8.13037H78H93.5V26.6304" stroke="#2C4163" stroke-width="2" stroke-linecap="round" stroke-linejoin="round"/>
<defs>
<clipPath id="clip0_6267_100418">
<rect width="44.5323" height="25.235" fill="white" transform="translate(52.6494 45.709)"/>
</clipPath>
</defs>
</svg>
