<svg width="158" height="157" viewBox="0 0 158 157" fill="none" xmlns="http://www.w3.org/2000/svg">
<path d="M133.368 78.7069C143.541 61.7875 128.297 39.2143 123.39 35.6255M123.39 35.6255C122.396 33.8306 118.64 33.3509 117.149 32.5263M123.39 35.6255C121.144 36.6188 119.811 36.1487 117.12 36.1797M123.39 35.6255C123.451 32.6262 121.841 31.8616 119.061 29.6436" stroke="#2C4163" stroke-width="2" stroke-linecap="round"/>
<path d="M23.319 84.0217C8.21926 66.7397 20.2026 42.2359 27.7501 40.0224M27.7501 40.0224C28.509 38.1159 32.1733 37.1636 33.5481 36.1564M27.7501 40.0224C30.1042 40.7227 31.3671 40.0873 34.0399 39.7767M27.7501 40.0224C27.3088 37.0551 28.8089 36.0925 31.2855 33.5396" stroke="#2C4163" stroke-width="2" stroke-linecap="round"/>
<path d="M8.06863 133.728C10.2192 147.785 63.5479 148.093 76.7768 148.093C90.0057 148.093 152.686 149.345 149.911 137.455C147.136 125.565 98.6871 117.72 76.7768 125.083C54.8665 132.447 5.91808 119.67 8.06863 133.728Z" fill="#1C232F"/>
<path d="M67.3242 91.0127C63.4549 109.929 63.518 119.59 67.3242 135.148" stroke="#2C4163" stroke-width="2" stroke-linecap="round"/>
<path d="M94.1895 90.0532C92.8997 108.559 92.9207 118.01 94.1895 133.229" stroke="#2C4163" stroke-width="2" stroke-linecap="round"/>
<path d="M139.269 80.5624C147.733 94.8756 148.143 118.423 77.0169 116.842C5.89043 115.261 12.721 90.3896 16.9883 77.5289C21.2556 64.6682 26.3816 41.1205 77.0169 41.1206C127.652 41.1207 130.805 66.2492 139.269 80.5624Z" fill="#378F53"/>
<path d="M80.1193 88.1292C79.9806 91.9529 71.5385 90.6179 70.9517 87.6367C74.2029 86.9842 76.1218 87.4639 80.1193 88.1292Z" fill="#2C4163"/>
<g clip-path="url(#clip0_6267_109549)">
<ellipse cx="60.8782" cy="70.5877" rx="8.22879" ry="12.6175" fill="white"/>
<ellipse cx="57.0058" cy="70.5878" rx="4.35642" ry="7.7646" fill="#2C4163"/>
<ellipse cx="88.9529" cy="70.5877" rx="8.22879" ry="12.6175" fill="white"/>
<ellipse cx="85.0805" cy="70.5878" rx="4.35642" ry="7.7646" fill="#2C4163"/>
</g>
<path d="M89.4219 135.213C91.5298 134.395 93.2863 134.379 95.5264 134.589C96.7224 134.701 97.9598 134.366 99.1086 134.474" stroke="#2C4163" stroke-width="3" stroke-linecap="round"/>
<path d="M60.9452 134.854C62.7746 135.472 64.7248 135.091 66.596 135.292C67.8149 135.423 69.2073 134.671 70.3884 135.07" stroke="#2C4163" stroke-width="3" stroke-linecap="round"/>
<path fill-rule="evenodd" clip-rule="evenodd" d="M75.1258 12.7382C61.3296 -1.70728 55.7866 25.3998 75.6028 32.9619C94.065 23.6546 88.9617 -2.55287 75.1258 12.7382Z" fill="#2C4163"/>
<defs>
<clipPath id="clip0_6267_109549">
<rect width="44.5323" height="25.235" fill="white" transform="translate(52.6494 57.9702)"/>
</clipPath>
</defs>
</svg>
