<svg width="96" height="96" viewBox="0 0 96 96" fill="none" xmlns="http://www.w3.org/2000/svg">
<g id="State=Enabled, Mini card=False" clip-path="url(#clip0_2374_108506)">
<path id="Checkmark" fill-rule="evenodd" clip-rule="evenodd" d="M44.8994 72.6155L44.87 72.6448L17.9999 45.7748L27.8994 35.8753L44.8701 52.846L78.8406 18.8755L88.7401 28.775L44.8995 72.6156L44.8994 72.6155Z" fill="#D5F6DB"/>
<g id="plant">
<path id="Ellipse 40" d="M79.2621 60.9276C79.2621 63.1028 78.1334 66.3432 76.5924 69.1291C75.8352 70.498 75.0266 71.6683 74.295 72.473C73.9281 72.8767 73.614 73.1511 73.3688 73.3142C73.261 73.3859 73.1865 73.4229 73.143 73.4415C73.0996 73.4229 73.0251 73.3859 72.9173 73.3142C72.6721 73.1511 72.358 72.8767 71.9911 72.473C71.2595 71.6683 70.4509 70.498 69.6937 69.1291C68.1527 66.3432 67.024 63.1028 67.024 60.9276C67.024 56.4427 69.9606 53.5 73.143 53.5C74.8396 53.5 76.334 54.1558 77.417 55.3558C78.5052 56.5613 79.2621 58.4139 79.2621 60.9276Z" stroke="#202733" stroke-width="3"/>
<path id="Ellipse 41" d="M87.1109 68.8044C84.95 68.8044 81.7265 69.9363 78.9528 71.4839C77.5905 72.2441 76.4256 73.0559 75.6246 73.7905C75.2229 74.1589 74.9495 74.4745 74.7867 74.7213C74.7113 74.8356 74.6741 74.9131 74.6561 74.9567C74.6741 75.0002 74.7113 75.0777 74.7867 75.192C74.9495 75.4389 75.2229 75.7545 75.6246 76.1229C76.4256 76.8574 77.5905 77.6692 78.9528 78.4294C81.7265 79.9771 84.95 81.1089 87.1109 81.1089C91.5606 81.1089 94.4998 78.1687 94.4998 74.9567C94.4998 73.2464 93.8441 71.7426 92.6494 70.6549C91.4501 69.5629 89.6089 68.8044 87.1109 68.8044Z" stroke="#202733" stroke-width="3"/>
<path id="Line 29" d="M75.9604 73.0439V73.0439C70.7691 75.372 67.4285 80.5312 67.4285 86.2206L67.4285 90.2615" stroke="#202733" stroke-width="3"/>
<path id="Line 30" d="M56 96.0003L60.6354 92.817C64.7281 90.0064 70.1291 90.0064 74.2218 92.817L78.8572 96.0003" stroke="#202733" stroke-width="3"/>
</g>
<g id="Person watering">
<g id="water">
<path id="Ellipse 51" d="M44.0883 42.5883C45.3132 38.0169 42.3181 33.2424 37.3986 31.9243C32.479 30.6061 27.498 33.2433 26.2731 37.8147C25.8196 39.5071 25.9445 41.2272 26.5313 42.7896" stroke="#202733" stroke-width="3"/>
<g id="Union">
<mask id="path-7-inside-1_2374_108506" fill="white">
<path fill-rule="evenodd" clip-rule="evenodd" d="M46.2242 44.2357C46.51 43.1687 45.8769 42.0721 44.8099 41.7862L43.8337 41.5246C33.1644 38.6658 22.1976 44.9974 19.3388 55.6667L18.0355 60.5306C17.4637 62.6645 18.7301 64.8578 20.8639 65.4296L27.6358 67.2441C32.8098 68.6305 38.1005 66.4146 40.8449 62.1337L50.7164 57.577L59.2039 59.0655C60.4185 59.2126 61.3914 58.1008 61.0712 56.9316L58.3347 46.9401C58.0145 45.771 56.6037 45.2839 55.6269 46.0052L48.9967 51.0786L44.3001 51.4163L46.2242 44.2357Z"/>
</mask>
<path d="M44.8099 41.7862L45.5864 38.8884L44.8099 41.7862ZM46.2242 44.2357L43.3264 43.4592L43.3264 43.4592L46.2242 44.2357ZM43.8337 41.5246L43.0572 44.4224L43.8337 41.5246ZM20.8639 65.4296L20.0875 68.3274L20.0875 68.3274L20.8639 65.4296ZM27.6358 67.2441L28.4122 64.3463L27.6358 67.2441ZM40.8449 62.1337L38.3194 60.5146L38.7922 59.7771L39.5876 59.4099L40.8449 62.1337ZM50.7164 57.577L49.459 54.8532L50.3107 54.4601L51.2346 54.6221L50.7164 57.577ZM59.2039 59.0655L58.8433 62.0438L58.7642 62.0342L58.6857 62.0204L59.2039 59.0655ZM61.0712 56.9316L63.9646 56.1392L63.9646 56.1392L61.0712 56.9316ZM58.3347 46.9401L55.4413 47.7326L55.4413 47.7326L58.3347 46.9401ZM55.6269 46.0052L53.8039 43.6227L53.8242 43.6072L53.8447 43.592L55.6269 46.0052ZM48.9967 51.0786L50.8198 53.4611L50.1071 54.0065L49.2119 54.0709L48.9967 51.0786ZM44.3001 51.4163L44.5153 54.4086L40.3115 54.7109L41.4023 50.6399L44.3001 51.4163ZM45.5864 38.8884C48.2537 39.6031 49.8366 42.3448 49.1219 45.0121L43.3264 43.4592C43.1834 43.9927 43.5 44.541 44.0335 44.684L45.5864 38.8884ZM44.6101 38.6268L45.5864 38.8884L44.0335 44.684L43.0572 44.4224L44.6101 38.6268ZM16.441 54.8903C19.7287 42.6206 32.3404 35.3392 44.6101 38.6268L43.0572 44.4224C33.9883 41.9924 24.6666 47.3743 22.2366 56.4432L16.441 54.8903ZM15.1377 59.7542L16.441 54.8903L22.2366 56.4432L20.9333 61.3071L15.1377 59.7542ZM20.0875 68.3274C16.3532 67.3268 14.1371 63.4884 15.1377 59.7542L20.9333 61.3071C20.7903 61.8405 21.1069 62.3889 21.6404 62.5318L20.0875 68.3274ZM26.8593 70.1419L20.0875 68.3274L21.6404 62.5318L28.4122 64.3463L26.8593 70.1419ZM43.3705 63.7528C39.9416 69.1014 33.3313 71.876 26.8593 70.1419L28.4122 64.3463C32.2884 65.3849 36.2594 63.7278 38.3194 60.5146L43.3705 63.7528ZM51.9737 60.3008L42.1023 64.8575L39.5876 59.4099L49.459 54.8532L51.9737 60.3008ZM51.2346 54.6221L59.7221 56.1106L58.6857 62.0204L50.1981 60.5319L51.2346 54.6221ZM59.5645 56.0873C58.7119 55.9841 57.9218 56.7896 58.1778 57.7241L63.9646 56.1392C64.861 59.4119 62.125 62.4411 58.8433 62.0438L59.5645 56.0873ZM58.1778 57.7241L55.4413 47.7326L61.2282 46.1477L63.9646 56.1392L58.1778 57.7241ZM55.4413 47.7326C55.6801 48.6044 56.6977 48.9439 57.4092 48.4184L53.8447 43.592C56.5097 41.6239 60.349 42.9375 61.2282 46.1477L55.4413 47.7326ZM57.45 48.3877L50.8198 53.4611L47.1736 48.6961L53.8039 43.6227L57.45 48.3877ZM44.0849 48.4241L48.7815 48.0863L49.2119 54.0709L44.5153 54.4086L44.0849 48.4241ZM49.1219 45.0121L47.1979 52.1928L41.4023 50.6399L43.3264 43.4592L49.1219 45.0121Z" fill="#202733" mask="url(#path-7-inside-1_2374_108506)"/>
</g>
</g>
<g id="adult">
<path id="Ellipse 13" d="M27 30.5C26 29 21.5 27.3335 17.2053 27.3335C8.92754 27.3335 1.9721 33.1408 0 41.0001" stroke="#202733" stroke-width="3"/>
<path id="Ellipse 15" d="M27.5578 11.9583C27.5578 17.7242 22.8473 22.4165 17.0141 22.4165C11.1809 22.4165 6.4704 17.7242 6.4704 11.9583C6.4704 6.19238 11.1809 1.5 17.0141 1.5C22.8473 1.5 27.5578 6.19238 27.5578 11.9583Z" stroke="#202733" stroke-width="3"/>
</g>
</g>
</g>
<defs>
<clipPath id="clip0_2374_108506">
<rect width="96" height="96" fill="white"/>
</clipPath>
</defs>
</svg>
