<svg width="96" height="96" viewBox="0 0 96 96" fill="none" xmlns="http://www.w3.org/2000/svg">
<g clip-path="url(#clip0_4918_102987)">
<path fill-rule="evenodd" clip-rule="evenodd" d="M44.8994 72.6155L44.87 72.6448L17.9999 45.7748L27.8994 35.8753L44.8701 52.846L78.8406 18.8755L88.7401 28.775L44.8995 72.6156L44.8994 72.6155Z" fill="#032911"/>
<path d="M79.2621 60.9276C79.2621 63.1028 78.1334 66.3432 76.5924 69.1291C75.8352 70.498 75.0266 71.6683 74.295 72.473C73.9281 72.8767 73.614 73.1511 73.3688 73.3142C73.261 73.3859 73.1865 73.4229 73.143 73.4415C73.0996 73.4229 73.0251 73.3859 72.9173 73.3142C72.6721 73.1511 72.358 72.8767 71.9911 72.473C71.2595 71.6683 70.4509 70.498 69.6937 69.1291C68.1527 66.3432 67.024 63.1028 67.024 60.9276C67.024 56.4427 69.9606 53.5 73.143 53.5C74.8396 53.5 76.334 54.1558 77.417 55.3558C78.5052 56.5613 79.2621 58.4139 79.2621 60.9276Z" stroke="#DFE1E5" stroke-width="3"/>
<path d="M87.1109 68.8044C84.95 68.8044 81.7265 69.9363 78.9528 71.4839C77.5905 72.2441 76.4256 73.0559 75.6246 73.7905C75.2229 74.1589 74.9495 74.4745 74.7867 74.7213C74.7113 74.8356 74.6741 74.9131 74.6561 74.9567C74.6741 75.0002 74.7113 75.0777 74.7867 75.192C74.9495 75.4389 75.2229 75.7545 75.6246 76.1229C76.4256 76.8574 77.5905 77.6692 78.9528 78.4294C81.7265 79.9771 84.95 81.1089 87.1109 81.1089C91.5606 81.1089 94.4998 78.1687 94.4998 74.9567C94.4998 73.2464 93.8441 71.7426 92.6494 70.6549C91.4501 69.5629 89.6089 68.8044 87.1109 68.8044Z" stroke="#DFE1E5" stroke-width="3"/>
<path d="M75.9604 73.0439V73.0439C70.7691 75.372 67.4285 80.5312 67.4285 86.2206L67.4285 90.2615" stroke="#DFE1E5" stroke-width="3"/>
<path d="M56 96.0003L60.6354 92.817C64.7281 90.0064 70.1291 90.0064 74.2218 92.817L78.8572 96.0003" stroke="#DFE1E5" stroke-width="3"/>
<path d="M44.0883 42.5883C45.3132 38.0169 42.3181 33.2424 37.3986 31.9243C32.479 30.6061 27.498 33.2433 26.2731 37.8147C25.8196 39.5071 25.9445 41.2272 26.5313 42.7896" stroke="#DFE1E5" stroke-width="3"/>
<mask id="path-7-inside-1_4918_102987" fill="white">
<path fill-rule="evenodd" clip-rule="evenodd" d="M46.224 44.2355C46.5099 43.1686 45.8767 42.0719 44.8098 41.786L43.8335 41.5244C33.1642 38.6656 22.1974 44.9972 19.3386 55.6666L18.0353 60.5304C17.4636 62.6643 18.7299 64.8576 20.8638 65.4294L27.6356 67.2439C32.8097 68.6303 38.1003 66.4144 40.8447 62.1335L50.7162 57.5768L59.2037 59.0653C60.4183 59.2124 61.3912 58.1006 61.071 56.9314L58.3346 46.9399C58.0144 45.7708 56.6035 45.2837 55.6268 46.005L48.9965 51.0784L44.2999 51.4162L46.224 44.2355Z"/>
</mask>
<path d="M44.8098 41.786L44.0333 44.6838L44.8098 41.786ZM43.8335 41.5244L43.057 44.4222L43.8335 41.5244ZM20.8638 65.4294L20.0873 68.3272L20.0873 68.3272L20.8638 65.4294ZM40.8447 62.1335L38.3192 60.5144L38.792 59.7769L39.5874 59.4097L40.8447 62.1335ZM50.7162 57.5768L49.4588 54.853L50.3105 54.4599L51.2344 54.6219L50.7162 57.5768ZM59.2037 59.0653L58.8431 62.0436L58.764 62.034L58.6855 62.0202L59.2037 59.0653ZM61.071 56.9314L63.9645 56.139L61.071 56.9314ZM58.3346 46.9399L55.4411 47.7324L58.3346 46.9399ZM55.6268 46.005L53.8037 43.6225L53.824 43.607L53.8445 43.5918L55.6268 46.005ZM48.9965 51.0784L50.8196 53.4609L50.1069 54.0063L49.2117 54.0707L48.9965 51.0784ZM44.2999 51.4162L44.5151 54.4084L40.3113 54.7107L41.4021 50.6397L44.2999 51.4162ZM45.5862 38.8882C48.2535 39.6029 49.8365 42.3446 49.1218 45.012L43.3262 43.459C43.1833 43.9925 43.4998 44.5408 44.0333 44.6838L45.5862 38.8882ZM44.61 38.6266L45.5862 38.8882L44.0333 44.6838L43.057 44.4222L44.61 38.6266ZM16.4408 54.8901C19.7285 42.6204 32.3402 35.339 44.61 38.6266L43.057 44.4222C33.9881 41.9922 24.6664 47.3741 22.2364 56.443L16.4408 54.8901ZM15.1376 59.754L16.4408 54.8901L22.2364 56.443L20.9331 61.3069L15.1376 59.754ZM20.0873 68.3272C16.353 67.3266 14.137 63.4882 15.1376 59.754L20.9331 61.3069C20.7902 61.8404 21.1067 62.3887 21.6402 62.5316L20.0873 68.3272ZM26.8591 70.1417L20.0873 68.3272L21.6402 62.5316L28.412 64.3461L26.8591 70.1417ZM43.3703 63.7527C39.9414 69.1012 33.3311 71.8759 26.8591 70.1417L28.412 64.3461C32.2882 65.3848 36.2592 63.7276 38.3192 60.5144L43.3703 63.7527ZM51.9735 60.3006L42.1021 64.8574L39.5874 59.4097L49.4588 54.853L51.9735 60.3006ZM51.2344 54.6219L59.7219 56.1104L58.6855 62.0202L50.198 60.5317L51.2344 54.6219ZM59.5643 56.0871C58.7117 55.9839 57.9217 56.7895 58.1776 57.7239L63.9645 56.139C64.8608 59.4117 62.1249 62.4409 58.8431 62.0436L59.5643 56.0871ZM58.1776 57.7239L55.4411 47.7324L61.228 46.1475L63.9645 56.139L58.1776 57.7239ZM55.4411 47.7324C55.6799 48.6042 56.6976 48.9437 57.409 48.4183L53.8445 43.5918C56.5095 41.6237 60.3488 42.9374 61.228 46.1475L55.4411 47.7324ZM57.4498 48.3876L50.8196 53.4609L47.1735 48.6959L53.8037 43.6225L57.4498 48.3876ZM44.0847 48.4239L48.7814 48.0861L49.2117 54.0707L44.5151 54.4084L44.0847 48.4239ZM49.1218 45.012L47.1977 52.1926L41.4021 50.6397L43.3262 43.459L49.1218 45.012Z" fill="#DFE1E5" mask="url(#path-7-inside-1_4918_102987)"/>
<path d="M27 30.5C26 29 21.5 27.3335 17.2053 27.3335C8.92754 27.3335 1.9721 33.1408 0 41.0001" stroke="#DFE1E5" stroke-width="3"/>
<path d="M27.5578 11.9583C27.5578 17.7242 22.8473 22.4165 17.0141 22.4165C11.1809 22.4165 6.4704 17.7242 6.4704 11.9583C6.4704 6.19238 11.1809 1.5 17.0141 1.5C22.8473 1.5 27.5578 6.19238 27.5578 11.9583Z" stroke="#DFE1E5" stroke-width="3"/>
</g>
<defs>
<clipPath id="clip0_4918_102987">
<rect width="96" height="96" fill="white"/>
</clipPath>
</defs>
</svg>
